<?xml version="1.0" encoding="UTF-8" standalone="no"?>
<svg width="219px" height="159px" viewBox="0 0 219 159" version="1.1" xmlns="http://www.w3.org/2000/svg" xmlns:xlink="http://www.w3.org/1999/xlink">
    <!-- Generator: Sketch 3.8.3 (29802) - http://www.bohemiancoding.com/sketch -->
    <title>bestfresh-logo</title>
    <desc>Created with Sketch.</desc>
    <defs>
        <polygon id="path-1" points="158.709951 0.132994536 0.170946537 0.132994536 0.170946537 158.943067 158.709951 158.943067 158.709951 0.132994536"></polygon>
        <polygon id="path-3" points="6.57528654e-20 0.280426263 6.57528654e-20 63.1373972 81.9843004 63.1373972 81.9843004 0.280426263 0 0.280426263"></polygon>
    </defs>
    <g id="Page-1" stroke="none" stroke-width="1" fill="none" fill-rule="evenodd">
        <g id="bestfresh-home-desktop" transform="translate(-38.000000, -168.000000)">
            <g id="bestfresh-logo" transform="translate(38.000000, 168.000000)">
                <g id="Page-1" opacity="0.874591884">
                    <path d="M188.523399,78.7563776 C188.523399,122.253019 153.354692,157.512755 109.970345,157.512755 C66.5892733,157.512755 31.4205665,122.253019 31.4205665,78.7563776 C31.4205665,35.259736 66.5892733,0 109.970345,0 C153.354692,0 188.523399,35.259736 188.523399,78.7563776" id="Fill-1" fill="#8F5F68"></path>
                    <g id="Group-5" transform="translate(29.508117, 0.000000)">
                        <mask id="mask-2" fill="white">
                            <use xlink:href="#path-1"></use>
                        </mask>
                        <g id="Clip-4"></g>
                        <path d="M79.4420679,3.37514182 C37.5171003,3.37514182 3.40914594,37.5417625 3.40914594,79.5388419 C3.40914594,121.532678 37.5171003,155.699298 79.4420679,155.699298 C121.363797,155.699298 155.471752,121.532678 155.471752,79.5388419 C155.471752,37.5417625 121.363797,3.37514182 79.4420679,3.37514182 M79.4420679,158.943067 C35.7328524,158.943067 0.170946537,123.323238 0.170946537,79.5388419 C0.170946537,35.7512019 35.7328524,0.131372651 79.4420679,0.131372651 C123.151283,0.131372651 158.709951,35.7512019 158.709951,79.5388419 C158.709951,123.323238 123.151283,158.943067 79.4420679,158.943067" id="Fill-3" fill="#FFFFFF" mask="url(#mask-2)"></path>
                    </g>
                    <g id="Group-23" transform="translate(0.000000, 27.206749)">
                        <path d="M141.571785,66.6991629 C141.209524,66.3074384 140.798747,65.9552155 140.345921,65.6490779 C140.193901,65.5503238 140.045115,65.4581533 139.893095,65.3725665 C140.248887,65.5009468 140.666133,65.6490779 141.157773,65.8268352 C141.494158,65.9486319 141.798198,66.0671368 142.066659,66.1757663 C141.934046,66.3271892 141.782026,66.4884876 141.610599,66.6629531 C141.597661,66.6728285 141.584723,66.6859957 141.571785,66.6991629 M156.317734,32.0628158 L156.317734,32.8330976 L155.968411,32.8330976 C150.401888,32.8330976 144.625125,33.995104 138.799844,37.612795 C134.863494,40.0618962 131.887782,42.8566366 130.150871,46.3722818 C128.142265,43.0706038 124.60699,40.9572665 120.182234,40.9572665 C119.457713,40.9572665 118.697613,40.9111813 117.918105,41.0099353 C113.001711,41.6419614 107.551629,44.6309182 101.260584,50.2533171 C99.2649164,52.0374741 97.4956613,53.7985885 95.965757,55.5728701 C96.3959415,51.6622086 94.1253435,48.2189831 90.3830616,47.2841111 C89.6488369,47.103062 88.8725641,46.2899867 88.067181,46.2899867 C87.0386195,46.2899867 85.9291963,46.0003081 84.6709874,46.0003081 L84.6580496,46.0003081 C84.777725,46.0003081 84.5286708,43.5051217 83.5001093,41.9415155 C82.2354315,40.0191027 80.1168536,39.2323619 77.8300832,39.2323619 C77.2511131,39.2323619 76.6689085,39.4825389 76.0931728,39.6273782 C74.993453,39.9038897 73.9713604,40.4338699 73.0527709,41.0263943 C72.6743379,41.2732795 71.7719208,41.9480991 70.3552229,42.9817251 C68.5309817,44.3116134 66.6938027,46.2965703 64.7434173,48.9925567 C62.553681,52.0243069 61.4022097,54.3450277 61.0076043,56.491283 C60.5191993,59.1642268 61.0173077,61.1491837 61.8065184,62.5679507 C60.3316001,65.9486319 58.6043931,69.3424804 56.6443042,72.7034109 C56.6054905,72.7725388 56.5634424,72.8449584 56.5246288,72.9173781 C55.851859,74.1781385 55.0044279,76.120302 55.3828609,78.4574819 C55.8615624,81.4201042 58.122457,83.7243661 61.1402176,84.3267659 C61.5542298,84.4123528 62.0296969,84.458438 62.4469435,84.458438 C64.0544751,84.458438 65.3514976,83.941625 66.3962315,83.207553 C67.7902881,90.1071713 72.7099171,92.5858987 76.9470729,92.5858987 C78.1114821,92.5858987 79.3502842,92.414725 80.6214309,92.0723775 C84.5383742,91.0190007 88.1480428,88.8727453 91.3534026,85.692864 C92.181427,84.8732052 92.98681,84.0403791 93.7663173,83.1943858 C96.6352923,85.3110149 100.144692,86.3512245 104.291283,86.3512245 C105.947332,86.3512245 107.7554,86.1833426 109.657269,85.8508705 C114.596305,84.9917101 119.428603,82.9343334 124.095943,79.7182423 C124.548769,81.0349633 125.224773,81.9961697 125.865198,82.6709892 C127.725019,84.7876183 130.386988,85.9463328 133.411217,85.9463328 C133.815526,85.9463328 134.232772,85.926582 134.669426,85.8837886 C136.632749,85.692864 138.566962,85.3175985 140.426783,84.7645757 C148.315655,82.5129827 153.979212,79.3331014 157.672977,75.053758 C162.191532,69.9053787 162.023339,65.3626911 161.027123,62.4000687 C160.354353,60.2340626 158.853559,58.3873613 156.443879,56.7645026 C154.888098,55.7210012 153.636359,55.00668 152.494591,54.5129097 C151.656863,54.1475196 150.233696,53.5484115 148.22509,52.7814215 C148.034256,52.7090018 147.846657,52.6365822 147.668761,52.5674543 C148.412689,52.155979 149.331279,51.7017102 150.463343,51.1453956 L151.443388,50.6647924 C152.245536,50.2697761 153.012106,49.9866811 153.765737,49.7858811 C154.102122,50.7141694 154.532307,51.3363201 154.655217,51.5042021 C155.991053,53.3377361 158.044941,54.3878212 160.289663,54.3878212 C161.703127,54.3878212 163.077777,53.9763458 164.371565,53.1599788 C167.056175,51.5206611 168.990388,49.2855271 169.899274,46.7376719 C170.649671,44.6276264 170.879319,42.5011219 170.565575,40.5721256 C170.125687,37.8596802 168.469638,35.9109331 165.645946,34.0214384 C163.288017,32.4413731 160.237912,32.0628158 156.317734,32.0628158 M156.317734,39.4167029 C158.944124,39.4167029 160.868634,39.0875226 162.091263,39.9071815 C163.355941,40.7531747 164.051352,41.2239025 164.183965,42.0336859 C164.313344,42.8401776 164.193669,43.6302102 163.821705,44.6802952 C163.443272,45.7336721 162.495572,46.7245047 160.975371,47.6560848 C160.748958,47.7976323 160.506373,47.853593 160.289663,47.853593 C160.118237,47.853593 159.966216,47.7647143 159.849776,47.6067078 C159.636301,47.3104455 159.872417,47.1129374 160.529014,46.4644523 C161.185612,45.8126753 161.538169,44.9930165 161.573748,43.8738036 C161.609327,42.7545907 160.913916,42.7085055 159.490749,42.7085055 L158.837386,42.7085055 C155.997522,42.7085055 152.591625,42.7809251 148.619695,44.7428395 C144.651001,46.7014621 141.691461,47.9655143 139.754013,50.9873891 C138.97774,52.1066019 138.680169,53.4035722 138.85483,54.489867 C139.032726,55.5794537 140.064522,56.5834535 141.953453,57.3438599 C142.742663,57.6697484 144.078499,58.2326466 145.954492,58.9469678 C147.836954,59.6645807 149.169555,60.227479 149.962001,60.5698265 C150.751211,60.9121739 151.724787,61.4816558 152.873024,62.2552294 C154.024495,63.028803 154.690796,63.7694586 154.875161,64.4475699 C155.541461,66.3074384 154.855754,68.3779823 152.811569,70.7085785 C149.910249,74.069509 145.174985,76.5745708 138.615479,78.4443147 C137.140561,78.8821244 135.617126,79.1783866 134.051642,79.3298096 C133.828464,79.3528522 133.614989,79.3627276 133.411217,79.3627276 C132.169181,79.3627276 131.231184,78.9677113 130.593994,78.171095 C130.335236,77.9472525 130.160575,77.5686952 130.076478,77.0420067 C129.992382,76.5120265 130.429036,75.4849841 131.405846,74.2900598 C132.26298,73.2465583 133.944905,72.1668471 136.205799,71.0904276 C136.29313,71.0542178 136.377226,71.0377588 136.454853,71.0377588 C136.56806,71.0377588 136.671563,71.0706768 136.765363,71.1332211 C136.933555,71.2451423 136.99501,71.3998571 136.952962,71.5907816 C136.910914,71.7817062 136.558356,72.035175 135.908228,72.3413126 C135.261334,72.6507421 134.620909,73.3913976 133.961077,74.3229778 C133.23979,75.3401448 133.08777,76.1104266 133.724961,76.6173642 C134.287758,77.0683412 134.876432,77.2921837 135.484512,77.2921837 C135.558905,77.2921837 135.636533,77.2888919 135.71416,77.2823083 C136.403102,77.2197641 137.098513,77.0617576 137.800393,76.8148724 C140.798747,75.7384529 143.580391,73.9213779 146.145326,71.3570636 C148.707026,68.7927494 149.784105,66.297563 149.38303,63.8089602 C149.159852,62.4428622 147.131839,61.0175116 143.302227,59.6152037 C141.500627,58.9700104 140.488238,58.6046203 140.248887,58.492699 C138.101199,57.5117418 136.678032,56.491283 135.98909,55.4148636 C135.209582,56.9883452 133.919029,59.2695644 132.117429,62.2815638 C132.088319,62.3177737 132.055974,62.3210655 132.026864,62.3539835 C130.480787,64.9084223 128.549809,67.3015628 126.201583,69.549864 C120.502447,75.0241317 114.62218,78.306059 108.567252,79.3627276 C107.021176,79.6293636 105.598009,79.7676193 104.291283,79.7676193 C101.208833,79.7676193 98.7894493,79.0072129 97.0234287,77.4337313 C96.0660255,76.5416528 95.4676486,75.3500202 95.2250633,73.8555418 C95.0892156,73.019424 95.1183258,72.0252996 95.2509391,70.9455883 C94.8369269,71.5381128 94.4164458,72.1339291 93.9409787,72.7824142 C91.5765811,75.9952135 89.1151493,78.7208261 86.8380824,80.9790027 C84.5642499,83.2338875 81.9378602,84.909415 78.9718512,85.7060312 C78.234392,85.9035394 77.5583877,86.0022935 76.9470729,86.0022935 C74.5762063,86.0022935 73.149805,84.5045233 72.6549311,81.4628977 C72.0371473,77.6411148 74.3497934,72.0022569 79.6737312,64.81296 C80.1006812,64.2500618 80.3982525,63.8188356 80.5729139,63.5159898 C80.8090302,63.0683047 80.9287056,62.8444621 81.1648219,62.3967769 C81.963736,60.9681346 82.3065898,60.1122659 82.1869144,59.8160037 C82.0057841,59.509866 81.9119845,59.3584431 81.7308541,59.0555973 C81.4106416,58.5223252 80.559976,58.2491056 79.1788572,58.2491056 C78.8101277,58.2491056 78.4025844,58.2688564 77.9562276,58.3083581 C75.8473531,58.4959908 74.1621941,58.7725022 72.8910474,59.1214333 C67.8291017,68.7565396 64.9439544,74.4217319 64.1482748,75.8437906 C63.3914088,77.1967215 62.8253765,77.8748328 62.4469435,77.8748328 C62.4275367,77.8748328 62.4081299,77.871541 62.3887231,77.8682492 C62.0102901,77.7925377 61.803284,77.6345312 61.7644703,77.3843542 C61.7224222,77.1341772 61.8712078,76.6963675 62.2075927,76.0643414 C65.2997461,70.7645392 67.8452741,65.4186517 69.8312387,59.977302 C69.5757156,60.01022 69.3363648,60.026679 69.1164208,60.026679 C68.5827333,60.026679 68.1493143,59.927925 67.8064604,59.7304168 C67.3180555,59.4473218 67.1725043,58.7725022 67.3665725,57.70925 C67.5606407,56.6427059 68.4210098,55.0395981 69.9541486,52.9196772 C71.4872874,50.7997563 72.8781095,49.2888189 74.1330839,48.370406 C75.3815894,47.4585767 76.177269,46.8956784 76.5136539,46.6784194 C76.8435698,46.4677441 77.2252373,46.3064457 77.6521874,46.1978163 C77.7168768,46.1813572 77.7750972,46.1714818 77.8300832,46.1714818 C78.4802117,46.1714818 78.3152537,47.369698 77.3449127,49.7694221 C76.0640626,52.5049101 75.4236375,53.8808836 74.1460218,56.6361223 C77.3546161,55.9711782 80.1006812,55.3753619 82.3745137,54.8256309 C83.8591355,54.4273228 84.606298,54.2331064 86.0941543,53.8512573 C86.876896,53.6735 87.5334935,53.5846213 88.067181,53.5846213 C88.3615178,53.5846213 88.6202754,53.6109557 88.8402194,53.6636246 C89.4547687,53.8183393 89.6779471,54.2693163 89.5065202,55.0165555 C89.1927766,56.3069421 88.1997943,58.1701024 86.5275733,60.6192035 C82.9599528,65.965091 80.5243968,71.4196079 79.1982641,76.8905838 C78.8974583,78.2040131 78.8165966,79.2935997 78.9589133,80.1626356 C79.1982641,81.6472386 79.8419236,82.3846024 80.8898919,82.3846024 C81.1163048,82.3846024 81.3621245,82.3516844 81.6241166,82.2825565 C82.122225,82.1541762 83.0020009,81.5715271 84.2763821,80.5411929 C85.5507633,79.5108587 87.6078863,77.3086428 90.4736268,73.9806303 C93.3361328,70.6592015 95.5776206,67.5747824 97.1819177,64.6845797 C97.2918897,64.5101142 97.4277374,64.3949011 97.5797575,64.3224814 C99.2907922,61.4487378 101.920416,58.3741941 105.526851,55.1548112 C110.834616,50.4113236 115.246433,47.8930946 118.726723,47.4454094 C119.241004,47.3795734 119.726174,47.3466554 120.182234,47.3466554 C123.199995,47.3499472 124.94014,48.7851731 125.392966,51.5930807 C125.667896,53.2719001 125.344449,54.7005424 124.425859,55.8790077 C122.983286,58.3906531 120.366599,60.744292 116.588738,63.028803 C112.807643,65.3166058 109.524656,66.8341268 106.752715,67.5023628 C106.47455,67.5681988 106.231965,67.597825 106.01849,67.597825 C105.471865,67.597825 105.141949,67.3904415 105.009335,67.0382186 C104.925239,66.8176678 104.964053,66.6300351 105.203404,66.5246974 C105.442754,66.4193597 105.636823,66.3502319 105.785608,66.3238974 C107.42225,65.9124221 109.437325,64.8656289 111.840536,63.213144 C116.317043,60.2176036 119.499761,57.4656566 121.369285,54.8223391 C122.126151,53.5879131 122.430191,52.455533 122.261999,51.4317824 C122.116448,50.5331203 121.585994,50.0788515 120.677108,50.0788515 C120.54773,50.0788515 120.411882,50.0887269 120.269565,50.1084778 C119.3251,50.2236908 118.108939,50.7273366 116.630786,51.6292906 C113.444833,53.4628246 110.249177,56.3793617 107.047051,60.4019445 C103.844926,64.4311109 101.936589,68.2133921 101.31557,71.6664931 C101.111799,72.7297453 101.092392,73.7403287 101.250881,74.7048269 C101.406136,75.6693251 102.020685,76.4955675 103.097763,77.1868461 C103.812581,77.6476984 104.721467,77.8781246 105.824422,77.8781246 C106.380751,77.8781246 106.982362,77.8188722 107.632491,77.7036591 C109.793117,77.3251018 112.199562,76.4099806 114.858297,74.9846301 C121.70567,71.334021 126.903463,66.9756744 130.435505,61.695623 C130.451677,61.6561213 130.435505,61.6330787 130.454911,61.5935771 C132.871061,57.8112959 134.698536,54.4701162 134.928184,52.2942347 C135.245162,49.3217369 137.295816,46.2636523 142.173397,43.2319021 C147.044508,40.2034437 151.67627,39.4167029 156.042804,39.4167029 L155.829329,39.4167029" id="Fill-6" fill="#8F5F68"></path>
                        <path d="M192.837166,13.0895239 C191.646881,13.0895239 190.372499,13.2442386 189.049601,13.5470845 C179.727858,15.6637136 171.861627,24.9400133 165.046599,41.8829214 C164.655228,41.9915509 164.27356,42.1330984 163.908065,42.3075639 C160.883836,43.7362063 159.269835,46.8140417 159.706489,50.1321787 C159.428324,50.4811098 159.121049,50.8596671 158.78143,51.277726 C157.59438,52.7327028 155.999786,54.7176598 155.145886,55.9060005 C153.159921,58.6875737 153.079059,61.3308912 153.360458,63.0590876 C153.832691,65.9690411 155.556663,67.7861162 157.494111,68.6321094 C156.989534,70.6466926 156.785762,71.4005154 156.708135,71.6803187 C155.896283,73.8232822 156.119461,76.2262981 157.335622,78.145419 C158.267149,79.6168548 160.152845,81.3779692 163.8175,81.3911364 C165.528535,81.3911364 167.265445,80.8677397 170.994789,79.228422 C171.201795,79.1362516 171.405567,79.0342057 171.602869,78.9222844 C172.97105,78.1355436 173.757027,77.4673076 179.207109,70.1430468 C179.239453,70.4162664 179.275033,70.6796107 179.317081,70.9363713 C179.559666,72.4308496 180.012492,73.8068231 180.66262,75.0280819 C183.033487,79.3897204 186.998947,82.0099953 191.857121,82.464264 C192.468436,82.5235165 193.082985,82.5498509 193.6943,82.5498509 C197.44952,82.5498509 201.149754,81.4734314 204.691498,79.3502187 C206.57396,78.2408813 208.847792,76.4633078 211.600326,73.9384952 C214.504881,71.2721351 216.413218,69.0271257 217.587331,66.8907458 C218.454169,65.4094347 218.78085,63.7009891 218.512389,62.0221698 C218.266569,60.5276914 217.438545,58.4308131 214.87361,56.8836659 C213.722139,56.1890955 212.425116,55.8204137 211.11839,55.8204137 C209.436466,55.8204137 207.845107,56.4030627 206.512505,57.5058166 C206.140541,57.815246 205.804156,58.1641771 205.509819,58.549318 C204.248376,60.1853439 202.375618,61.9299993 199.946531,63.7371989 C199.115272,64.352766 198.39722,64.8629954 197.779436,65.2843462 C198.131993,63.8952055 198.775653,62.4007271 199.703946,60.800911 C199.758932,60.7054487 199.810683,60.6099865 199.862435,60.5112324 C200.402591,59.4611473 200.981561,58.3254754 201.602579,57.1075085 C202.902836,54.5333188 203.213346,51.5805719 202.501762,48.5619889 C201.887213,45.9515894 200.334667,43.8547112 198.18051,42.5643245 C202.547045,38.9433417 209.197115,32.1786873 207.845107,23.8405513 C207.563708,22.1090631 206.735683,20.4236601 205.32222,18.6888802 C202.973995,15.6604218 199.33845,13.8137205 194.515856,13.1948616 C193.978933,13.1257337 193.41937,13.0895239 192.837166,13.0895239 M175.468061,47.8476677 C179.756969,45.4874452 184.107331,42.3734 188.512679,38.5351581 C192.918027,34.7002081 195.948726,31.1450613 197.63065,27.7281701 C198.319592,26.3653639 198.581584,25.1737313 198.413392,24.1466889 C198.248434,23.1229383 197.646823,22.5337056 196.608558,22.3921581 C196.466241,22.3724073 196.32069,22.3625319 196.16867,22.3625319 C195.214501,22.3625319 194.072733,22.7509646 192.7466,23.5344136 C185.701925,27.7841308 179.928395,35.9445095 175.468061,47.8476677 M192.837166,19.6731291 C193.141206,19.6731291 193.429074,19.6895882 193.704004,19.725798 C196.857612,20.1306897 199.050583,21.1873583 200.289385,22.826676 C200.978327,23.6595021 201.369698,24.3540725 201.460263,24.9136789 C202.14597,29.1436453 198.94708,33.8607984 191.811839,39.2494793 C185.527263,43.9962587 179.491742,48.242684 173.973736,51.9360866 C172.576445,55.7578694 171.253547,60.4947734 170.001807,66.1566739 C172.175371,63.4936055 174.963484,60.4388127 178.366146,57.064715 C184.880369,50.7345786 189.702964,47.7357464 192.882448,47.7357464 C193.060344,47.7357464 193.235005,47.74233 193.403198,47.7620809 C194.981619,47.9398382 195.896974,48.7660807 196.210718,50.0992607 C196.547103,51.5213194 196.466241,52.8709585 195.854926,54.0823419 C195.240377,55.2904334 194.664641,56.4162299 194.130954,57.4564396 C191.533674,61.9365829 190.540692,66.1171722 191.155241,69.9093288 C191.355778,71.1536302 191.792432,72.0786268 192.461967,72.6941939 C193.186488,73.3690134 194.014513,73.7047773 194.952509,73.7047773 C195.528245,73.7047773 196.149263,73.5796888 196.809095,73.3229282 C198.536302,72.657984 200.855417,71.2161745 203.759971,69.0534602 C206.664525,66.8940376 208.938358,64.7642414 210.597641,62.6114024 C210.765833,62.4731467 210.93726,62.4040189 211.11839,62.4040189 C211.267176,62.4040189 211.419196,62.4533959 211.574451,62.5455664 C211.920539,62.75295 212.101669,62.9372909 212.127545,63.0920056 C212.153421,63.2467204 212.108138,63.4047269 211.998166,63.569317 C211.205721,65.0670872 209.630534,66.8808704 207.269371,69.0501684 C204.901739,71.2194663 202.944885,72.7731971 201.408511,73.6784428 C198.866218,75.2025474 196.298049,75.9662457 193.6943,75.9662457 C193.280288,75.9662457 192.866276,75.9464948 192.449029,75.910285 C189.709433,75.6535244 187.674951,74.3302198 186.352053,71.8942858 C186.044778,71.3182204 185.828069,70.6434008 185.701925,69.8665354 C185.57578,69.08967 185.527263,68.2601357 185.520794,67.4108507 C185.494918,64.869579 186.714314,60.8897897 189.27278,55.6821579 C189.812936,54.6287811 190.045818,53.8716665 189.971425,53.4075223 C189.893798,52.9400864 189.567116,52.6767422 188.988146,52.6240733 C188.93316,52.6174897 188.878174,52.6141979 188.819954,52.6141979 C187.639372,52.6141979 185.663111,53.6544075 182.881467,55.7907874 C180.934316,57.4301051 178.175313,60.6132783 174.597989,65.4324773 C171.020665,70.2549681 168.957073,72.8818266 168.429854,73.1846724 C165.997533,74.2512165 164.467628,74.8075311 163.843376,74.8075311 L163.840141,74.8075311 C163.225592,74.8075311 162.866566,74.7252361 162.769532,74.5705213 C162.669263,74.4158066 162.672498,74.2150067 162.776001,73.9681215 C162.882738,73.7179445 163.241764,72.3485546 163.859548,69.8665354 C165.939312,61.6238617 167.375417,56.2121382 168.1808,53.5721125 C166.204539,56.1199677 163.697825,59.0134622 160.667126,62.3085566 C160.46012,62.5126484 160.288693,62.6146943 160.146376,62.6146943 C159.945839,62.6146943 159.809992,62.4073107 159.742068,61.98596 C159.628861,61.2716388 159.835867,60.5375668 160.369555,59.7903276 C160.903242,59.0463802 162.032073,57.5979871 163.75928,55.481358 C165.486487,53.3647289 166.696178,51.8011227 167.398058,50.7674966 C166.692944,50.4383164 166.278932,49.993923 166.149553,49.4343166 C166.023409,48.8780019 166.178663,48.492861 166.615317,48.2854775 C166.760868,48.2163496 166.948467,48.1834316 167.17488,48.1834316 C167.624471,48.1834316 168.232552,48.3151037 168.992652,48.5850315 C169.581326,47.7390382 170.079434,46.8008745 170.483743,45.7672485 C176.541905,30.1838549 183.211383,21.6185845 190.479237,19.9693914 C191.336371,19.7718832 192.122348,19.6731291 192.837166,19.6731291" id="Fill-8" fill="#8F5F68"></path>
                        <g id="Group-12" transform="translate(0.000000, 20.697244)">
                            <mask id="mask-4" fill="white">
                                <use xlink:href="#path-3"></use>
                            </mask>
                            <g id="Clip-11"></g>
                            <path d="M71.7334306,0.280426263 C70.1064921,0.280426263 68.6186359,0.892701549 67.4833369,1.89999315 C64.222991,2.62089792 60.1928413,3.43397317 54.878607,4.44126477 C47.3908087,5.8633235 40.7504417,7.77586082 34.5790727,10.2940898 C24.8530212,14.2574202 16.5501365,19.9160289 9.89683155,27.1086176 C9.43430233,27.6089716 9.04293145,28.1060338 8.65802951,28.6063878 C8.54158859,28.7545189 8.42838214,28.9059418 8.30547227,29.0540729 C8.10170066,29.3042499 7.91733586,29.5643023 7.75237789,29.8342301 C5.68878598,32.4610886 4.05537859,35.2163274 2.88773489,38.0341104 C-2.19685208,48.7061345 0.364848225,54.9671431 3.46023609,58.3576998 C3.63489748,58.5552079 3.81926227,58.7494243 4.01656495,58.9436407 C4.50496993,59.4110766 4.93515445,59.7731749 5.39121473,60.1089388 C6.10279815,60.6323354 6.8434918,61.089896 7.64564038,61.5013713 C9.7512804,62.5843743 12.0768644,63.1373972 14.5415306,63.1373972 C15.7738637,63.1373972 17.0579483,62.9958497 18.3549708,62.7193383 C18.445536,62.6995874 18.5361011,62.6798366 18.6266663,62.656794 C19.3447187,62.4691613 20.0368953,62.2091088 20.6837893,61.8832204 C21.9581705,61.2413189 23.0320146,60.2603617 23.8762112,58.9666833 C25.1441235,57.0245197 25.4093501,54.6939235 24.6007325,52.5740026 C23.7888806,50.4409145 22.0131565,48.8838919 19.7296206,48.3012428 C19.0406785,48.1300691 18.2288265,48.0082724 17.096762,47.9095183 C17.7695317,45.4505417 19.3997047,42.7018866 21.8902466,39.8413101 C25.7877831,35.3644585 30.6977086,31.4406298 36.4906446,28.1718698 C36.6361957,28.0895747 36.7785124,28.0006961 36.9175946,27.9052338 C37.8782322,27.2600405 39.7477559,26.2033719 43.20217,24.8306902 C45.6959464,23.8398576 50.1918598,22.2597923 57.4209005,20.3670058 C60.0828693,19.6691437 62.3987499,19.079911 64.3653077,18.5762652 C64.5852517,18.5203045 64.8051957,18.4643439 65.0154362,18.4116751 C65.0736567,19.1918323 65.1642218,19.9818649 65.2968351,20.7817729 C66.170142,26.1737456 68.6477461,28.402296 70.5690213,29.3240007 C71.9048575,29.9626104 73.1760042,30.2720399 74.4600888,30.2720399 C75.8315042,30.2720399 77.1738092,29.9066498 78.3479219,29.2153712 C80.4309206,27.9776535 81.740881,25.9400276 81.954356,23.6127232 C82.1710655,21.2525007 81.203959,18.9383635 79.2988561,17.2595441 C78.9560023,16.9599901 78.6131484,16.7098131 78.2897014,16.4991377 C78.2347154,16.1074132 78.2023707,15.7255641 78.2023707,15.3535904 L78.2023707,14.3989677 C78.2120741,14.3693415 78.2217775,14.343007 78.231481,14.3133808 C78.3640942,14.0204104 78.5355211,13.6352695 78.7392928,13.1612499 C78.7748719,13.075663 78.8104511,12.9966598 78.8427958,12.9275319 C80.1042391,11.0314536 80.2950729,8.62185409 79.3958902,6.56776926 C79.3344353,6.02791363 79.2082909,5.4946416 79.0142227,4.9811204 C78.2347154,2.91386835 76.656294,1.51814405 74.3113032,0.823573694 C73.5220925,0.474642617 72.6487856,0.280426263 71.7334306,0.280426263 M71.7334306,12.1374993 L71.7334306,15.3535904 C71.7334306,17.1706655 72.1183325,18.7375635 72.3188697,19.9785731 C72.4805932,20.9628221 74.4730267,21.7199367 75.0649347,22.2367497 C75.6568428,22.7568545 75.6665462,23.1847889 75.1005139,23.5205527 C74.8935078,23.6423494 74.6800328,23.6884347 74.4600888,23.6884347 C74.0719524,23.6884347 73.6773471,23.5337199 73.3215554,23.365838 C72.7458197,23.0893266 72.0407052,21.9503629 71.6784446,19.7086453 C71.3161839,17.4800949 71.3323563,14.7182725 71.7334306,12.8485286 M73.4832789,9.24071298 C73.2892107,9.50405719 73.0660322,9.93199153 72.8137436,10.5212242 C72.5582204,11.1137487 72.3738556,11.5285158 72.2541802,11.7688174 C72.0407052,12.3481746 71.8660438,12.9439909 71.7334306,13.5628498 L71.7334306,9.74765058 C72.6002685,9.49418178 73.1857076,9.32629985 73.4832789,9.24071298 M71.7334306,8.84569667 L71.7334306,9.74765058 C71.0833021,9.93857513 70.2714501,10.1788767 69.3011091,10.4685554 C67.03698,11.1499585 62.5087219,12.2362534 55.8101344,13.9907842 C49.1050779,15.7453149 44.1466352,17.3879245 40.8507102,18.6980619 C37.5515507,20.0081993 35.0610088,21.2656679 33.3532086,22.414507 C26.7548896,26.1375358 21.3436212,30.5452595 17.0482449,35.4763798 C12.7561031,40.4075001 10.5307877,45.1674467 10.2946714,49.5850458 C10.2202786,50.0524818 10.2332164,50.566003 10.3237816,51.1289012 C10.4143468,51.6852159 10.7086835,52.2645732 11.2100264,52.8570976 C11.7113693,53.4529139 12.2676981,53.8380548 12.8887164,54.0125203 C13.5097346,54.1935695 14.4347931,54.318658 15.6671262,54.400953 C16.8994593,54.4832481 17.7339526,54.5820022 18.1609026,54.6873399 C18.5846182,54.7959694 18.6913557,55.0099365 18.4843496,55.3259496 C18.2773435,55.6452544 18.0541651,55.8625134 17.8115798,55.9843101 C17.5722291,56.102815 17.3070025,56.2048609 17.0256036,56.2772805 C16.1652346,56.4616215 15.3372102,56.553792 14.5415306,56.553792 C13.0989569,56.553792 11.7695897,56.2443625 10.553429,55.6222118 C10.0197414,55.3489922 9.57338455,55.0626054 9.17554473,54.7696349 C8.929725,54.5885858 8.70978103,54.3976612 8.50277495,54.2001531 C8.40574085,54.1079826 8.31841015,54.0125203 8.2375484,53.9170581 C5.18744312,50.6285473 6.6267823,45.2201156 8.78740832,40.7465558 C9.79009404,38.2711202 11.2682469,35.7989765 13.2865562,33.3465835 C13.3027285,33.3268327 13.3189009,33.2708721 13.3189009,33.2708721 C13.3156664,33.2774557 13.2671494,33.2840393 13.257446,33.2906229 C13.7199752,32.7343082 14.0919392,32.1747018 14.60622,31.621679 C20.3506389,25.4100474 27.631431,20.2188747 36.9855185,16.4036755 C42.1283259,14.3067972 48.1897228,12.4074271 56.062423,10.9129487 C63.1329746,9.57318504 67.9911487,9.15183431 71.7334306,8.2597558 M71.7334306,6.86403149 C71.7334306,7.04178883 73.0951425,7.18662815 72.9657637,7.3742609 C72.5679238,7.47301498 72.1571461,7.57506086 71.7334306,7.67381494 L71.7334306,6.86403149" id="Fill-10" fill="#8F5F68" mask="url(#mask-4)"></path>
                        </g>
                        <path d="M53.6236326,33.9016168 L53.6236326,33.9016168 C51.8673153,33.9016168 50.2436113,34.1682528 48.7978032,34.6949412 C44.7482467,36.1696688 41.0997644,39.5602255 37.6421159,45.0575358 C34.3267841,50.3310036 32.6966112,54.3470028 32.5090119,57.6980579 C32.4637293,58.5539265 32.5801702,59.396628 32.8453968,60.1899524 C32.716018,60.6409294 32.5251842,61.2696637 32.2405509,62.1255324 C31.8459455,63.3171649 31.4286989,64.5647581 30.988811,65.868312 C30.3548548,66.0065677 29.7273676,66.2139512 29.1095838,66.4937545 C27.5505693,67.1916166 25.9171619,68.4062918 23.9700109,70.3221209 C22.8605876,71.4117076 19.4935043,74.7265528 20.2406669,79.3317846 C20.6967272,82.1561513 22.3624792,84.4274951 24.7753939,85.6026686 C23.5268885,90.1585234 22.6471126,93.9770145 22.1425353,97.0186401 C22.0940182,97.2293155 22.0552046,97.4465744 22.0293288,97.6638334 L21.9775773,98.0950596 C21.5603307,100.968803 21.4988757,103.006429 21.7705712,104.691832 C21.796447,104.846547 21.8255572,104.99797 21.8611364,105.152684 C22.8508842,113.178099 29.0222531,113.415109 29.737071,113.415109 C34.0906678,113.415109 37.1213662,109.840211 39.7283491,105.883465 C40.980089,104.329734 42.231829,101.913551 43.9169879,97.8448826 L44.5283027,96.3931976 C45.6765396,94.4872439 46.7439147,92.2586935 46.3234336,89.6515858 C45.8932491,87.0082683 44.2436693,84.9607671 42.0280573,84.1016066 C42.4323661,82.8375544 42.8884264,81.4549973 43.3962382,79.9440599 C46.5401431,78.2718242 49.4058836,76.7674704 51.9837562,75.4145395 C58.6597025,71.9153534 63.4822974,69.3839571 66.4709477,67.4055838 C73.2989141,62.8299781 72.0989257,58.4452971 70.7792619,56.2364975 C70.0353338,54.9987797 68.5701188,53.4252981 65.7884746,52.9414031 C65.2903662,52.8558162 64.8246025,52.8196064 64.3556043,52.8196064 C63.6990069,52.8196064 63.0294716,52.8953179 62.3664052,53.043449 C61.9362207,53.142203 61.2860922,53.3166686 59.4586166,53.9388193 C58.3847725,54.3042094 56.1400503,55.2621239 52.9929109,56.7533105 C55.5643146,52.0822426 57.3271008,50.3013774 58.1712975,49.6496005 C59.5750575,49.6463087 60.9561763,49.1755809 62.0947097,48.2867942 C63.6828345,47.0457846 64.6143619,45.1266637 64.6208309,43.0857461 C64.6337687,39.1520419 62.0526616,34.8430723 56.2629602,34.0826659 C55.3476051,33.9608692 54.4613603,33.9016168 53.6236326,33.9016168 M53.6236326,40.485222 C54.1864304,40.485222 54.7912763,40.5280154 55.4349358,40.6103105 C57.2462391,40.8506121 58.1583596,41.6735627 58.1518907,43.0659952 C57.8672573,42.9902838 57.5987963,42.9507822 57.3465076,42.9507822 C57.0974534,42.9507822 56.8645716,42.986992 56.6446276,43.0627034 C51.6797161,44.787608 45.9676419,53.9717373 39.6927699,70.9640224 C42.005416,69.7822653 44.4247997,68.4820032 46.9476863,67.0764035 C55.4090601,62.7081814 60.335158,60.581677 61.5092706,60.1833688 C62.6801488,59.7850607 63.4337803,59.5480509 63.7701652,59.4723395 C63.9739368,59.4262542 64.1712395,59.4032116 64.3556043,59.4032116 C64.4720452,59.4032116 64.5852517,59.4097952 64.6952237,59.429546 C64.9701536,59.4756313 65.1900976,59.5579263 65.2515525,59.6599722 C65.4100416,59.9266082 64.6175964,60.7660179 62.9453754,61.8852308 C58.8958188,64.5680499 50.4635553,68.7157212 38.124052,75.3256609 C33.796331,87.8871796 31.8815247,95.4418666 32.2567232,97.7494203 C32.3634607,98.4143644 32.6125149,98.7468365 32.9974169,98.7468365 C33.259409,98.7468365 33.5893249,98.5921217 33.9806958,98.2859841 C34.9478023,97.5255777 35.743482,96.5182861 36.3677347,95.2476503 C37.8297152,92.1928575 38.8873869,90.5436644 39.5245775,90.2671529 C39.5666256,90.2506939 39.6022048,90.2408185 39.637784,90.2408185 C39.789804,90.2408185 39.8868381,90.4021168 39.9385897,90.7247135 C40.0032791,91.116438 39.6151427,91.9887657 38.7774149,93.3416966 C38.447499,94.118562 38.2857755,94.5069947 37.9558595,95.2871519 C36.4906446,98.8258397 35.365049,101.034639 34.5661349,101.8938 C32.2082062,105.531242 30.6944742,106.831504 29.737071,106.831504 C28.7861368,106.831504 28.3818281,105.550992 28.2427459,103.997262 C28.2136356,103.868881 28.174822,103.747085 28.1554152,103.618704 C27.9936917,102.621288 28.0874913,101.028056 28.388297,98.9739708 C28.4206417,98.6974594 28.443283,98.5065349 28.443283,98.5065349 L28.4562209,98.5131185 C29.1839766,93.8980112 30.9758731,86.8930553 33.9354132,77.4653326 C32.27613,78.4100799 31.0146867,79.0947749 30.1413798,79.493083 C29.5721131,79.7531354 29.0481289,79.8815157 28.5661929,79.8815157 C28.3042008,79.8815157 28.0583811,79.8453059 27.8222647,79.7663026 C27.1527294,79.5490436 26.7484207,79.0486896 26.6222763,78.258657 C26.4928975,77.4686244 27.1009779,76.3987885 28.4626898,75.0557331 C29.8244017,73.722553 30.9111837,72.8798515 31.7165667,72.5177532 C32.1144065,72.3399959 32.4928395,72.2511172 32.8551002,72.2511172 C33.2302987,72.2511172 33.5893249,72.3465795 33.9257098,72.5407959 C34.498211,72.8666843 34.876644,73.0279826 35.0610088,73.0279826 C35.0933535,73.0279826 35.1192292,73.0246908 35.1386361,73.0148154 C35.2647804,72.9588548 35.3294698,72.9325204 35.4556141,72.8765597 C36.5326927,69.7263046 37.5030337,66.8492691 38.3698717,64.2322861 C39.2399441,61.615303 39.6248461,59.9990279 39.521343,59.3735854 C39.4210745,58.7448511 39.2367097,58.313625 38.9682486,58.0700316 C39.0846896,55.9863205 40.4496359,52.8064392 43.0889635,48.6093908 C45.7315256,44.4090507 48.3611498,41.8447365 50.9778361,40.8934055 C51.7249986,40.6234777 52.608009,40.485222 53.6236326,40.485222" id="Fill-13" fill="#8F5F68"></path>
                        <path d="M87.1880521,1.03165094 L76.488425,1.03165094 C72.9143356,1.03165094 70.0194849,3.97781428 70.0194849,7.61525617 L70.0194849,34.6541228 C70.0194849,38.2915647 72.9143356,41.2377281 76.488425,41.2377281 L88.8861489,41.2377281 C90.9659131,41.2377281 92.9227675,40.9447576 94.7017261,40.3621086 C96.5938911,39.7399579 98.272581,38.838004 99.6925134,37.6792894 C101.245059,36.4053618 102.457985,34.884549 103.308651,33.1431854 C104.191661,31.3458612 104.644487,29.3872387 104.644487,27.3364456 C104.644487,25.595082 104.340447,23.9393053 103.74207,22.4184925 C103.347465,21.4177845 102.842887,20.4862044 102.228338,19.6336275 C102.470923,19.0871883 102.668226,18.5209982 102.820246,17.9383492 C103.121052,16.8026773 103.269837,15.5616677 103.269837,14.254822 C103.269837,12.0921077 102.73615,10.0676491 101.678478,8.23082326 C100.711371,6.55529573 99.3917077,5.1398206 97.7485969,4.0074405 C96.3027887,3.01331611 94.6240988,2.25290971 92.7545751,1.7426803 C91.033837,1.27195253 89.1610788,1.03165094 87.1880521,1.03165094 M80.9519937,32.6757495 L85.7745886,32.6757495 C87.0748456,32.6757495 88.1972067,32.550661 89.1546099,32.2971922 C90.1055441,32.0470152 90.8947548,31.6947923 91.5190075,31.2405235 C92.1400258,30.7862548 92.602555,30.2398155 92.9001262,29.6012058 C93.2009319,28.9593043 93.3497176,28.2581504 93.3497176,27.4944522 C93.3497176,26.6385835 93.2171043,25.845259 92.9486433,25.1078953 C92.6801823,24.3672397 92.2435288,23.7319218 91.632214,23.1953579 C91.0208991,22.6587941 90.2252195,22.2341516 89.2484095,21.9214303 C88.2683651,21.6120009 87.0683767,21.4572862 85.6419754,21.4572862 L80.9519937,21.4572862 L80.9519937,32.6757495 M80.9519937,19.7883422 L86.6349577,19.7883422 C87.5244369,19.7883422 88.3201166,19.6566701 89.0187621,19.3999095 C89.7174077,19.1398571 90.3060812,18.7810506 90.7847828,18.3201983 C91.2602499,17.8626377 91.6225105,17.3227821 91.8715647,16.7006314 C92.1206189,16.0784807 92.2435288,15.4003694 92.2435288,14.6630056 C92.2435288,13.8729729 92.0947432,13.15536 91.8036409,12.5068749 C91.5093041,11.8583897 91.0532438,11.3053669 90.4322256,10.8478063 C89.8079728,10.386954 89.0187621,10.0347311 88.0645935,9.7911377 C87.1104248,9.5442525 85.9654224,9.419164 84.6295862,9.419164 L80.9519937,9.419164 L80.9519937,19.7883422 M87.1880521,7.61525617 C88.6015155,7.61525617 89.8953035,7.7765545 91.0791196,8.10244296 C92.2597011,8.42503961 93.2753248,8.87601657 94.1227559,9.45866563 C94.9669526,10.0413147 95.62355,10.7391768 96.0957827,11.5555439 C96.5647808,12.3719109 96.8008971,13.2705731 96.8008971,14.254822 C96.8008971,14.9921858 96.7265043,15.6505464 96.5712498,16.2331954 C96.4192297,16.8158445 96.1572376,17.3557001 95.788508,17.8560541 C95.4197784,18.3531163 94.9249045,18.8271359 94.3038862,19.2715292 C93.6796335,19.7192144 92.8968918,20.1701913 91.955661,20.6211683 L91.955661,20.7001716 C92.8968918,20.8548863 93.7507919,21.1182305 94.5205957,21.4869124 C95.2903996,21.8555943 95.9437626,22.3230302 96.4871535,22.8925121 C97.02731,23.461994 97.4445567,24.1203545 97.735659,24.8643019 C98.0299958,25.6082493 98.1755469,26.4311999 98.1755469,27.3364456 C98.1755469,28.3601962 97.955603,29.3181108 97.515715,30.2101893 C97.0790616,31.1055596 96.4548088,31.8791332 95.6461913,32.5407856 C94.8408083,33.1991461 93.8639983,33.7192509 92.7189959,34.0945164 C91.577228,34.4697819 90.2963778,34.6541228 88.8861489,34.6541228 L76.488425,34.6541228 L76.488425,7.61525617 L87.1880521,7.61525617" id="Fill-15" fill="#8F5F68"></path>
                        <path d="M110.629874,6.79724322 C108.18138,6.79724322 105.878437,7.29430541 103.78897,8.27526259 C101.705971,9.25621977 99.9011367,10.6387769 98.4229839,12.3867241 C97.0159894,14.0457926 95.919504,16.0109987 95.169107,18.2197983 C94.4510546,20.3298438 94.088794,22.6143548 94.088794,25.0107871 C94.088794,27.3249243 94.5416198,29.5403075 95.4310991,31.5943923 C96.2817647,33.5727657 97.4752842,35.3371719 98.9663749,36.8349421 C100.444528,38.3195451 102.187907,39.5078858 104.144761,40.3571709 C106.159836,41.239374 108.3334,41.6870591 110.59106,41.6870591 C112.444412,41.6870591 114.284825,41.3315444 116.067018,40.6270987 C117.684253,39.9950726 119.214158,39.1095777 120.595276,38.003532 C121.94405,36.9205289 123.140804,35.6367259 124.153193,34.1883328 C125.239975,32.6313101 126.042124,30.9228646 126.533763,29.1156649 C127.005996,27.3775932 126.750473,25.5901443 125.928917,24.1154168 C126.116517,23.5031415 126.216785,22.8513646 126.216785,22.1732532 C126.216785,20.1191684 125.815711,18.1276278 125.0265,16.2480085 C124.259931,14.4144745 123.160211,12.7619896 121.766154,11.3563898 C120.378567,9.95408193 118.719284,8.83816084 116.840057,8.0316692 C114.922016,7.21201035 112.835783,6.79724322 110.629874,6.79724322 M114.653555,20.5043093 C114.653555,19.7175685 114.514473,18.9802047 114.242777,18.3020934 C113.971082,17.6206902 113.595883,17.0347493 113.117181,16.5343954 C112.641714,16.0373332 112.082151,15.6456086 111.441726,15.3592218 C110.798066,15.0761268 110.10589,14.9345793 109.371665,14.9345793 C108.76035,14.9345793 108.171677,15.0761268 107.605644,15.3592218 C107.039612,15.6456086 106.538269,16.0340414 106.098381,16.5245199 C105.661728,17.0182903 105.296233,17.6042312 105.011599,18.2823425 C104.723732,18.9637457 104.552305,19.6978177 104.484381,20.4845585 L114.653555,20.5043093 M110.629874,13.3808484 C111.978648,13.3808484 113.210981,13.62115 114.330108,14.0984614 C115.446,14.5790646 116.409872,15.2209661 117.208786,16.0307496 C118.010935,16.840533 118.635187,17.7754049 119.07831,18.8353654 C119.524667,19.8986176 119.747845,21.0079551 119.747845,22.1732532 L104.468208,22.1732532 C104.468208,23.5722693 104.646104,24.8692396 105.001896,26.0674557 C105.357688,27.2623801 105.852562,28.2960061 106.489752,29.1617502 C107.123708,30.0307861 107.890278,30.7088974 108.779757,31.2026678 C109.669236,31.6931464 110.642812,31.9400316 111.697249,31.9400316 C112.586728,31.9400316 113.437394,31.7951923 114.25248,31.5022218 C115.067567,31.2125432 115.805026,30.8306941 116.464858,30.3566745 C117.127924,29.8859468 117.687488,29.3427993 118.153251,28.7272322 C118.619015,28.1116651 118.945697,27.479639 119.13653,26.8344457 L120.30094,27.3578423 C120.006603,28.43097 119.53437,29.4382616 118.877773,30.3764253 C118.22441,31.3145891 117.461075,32.1342479 116.591002,32.8321101 C115.717695,33.5299723 114.763527,34.0829951 113.728496,34.4911786 C112.693466,34.8993621 111.648732,35.1034539 110.59106,35.1034539 C109.203473,35.1034539 107.90645,34.8368179 106.690289,34.3068377 C105.474129,33.7768574 104.413222,33.0559527 103.504336,32.1441233 C102.59545,31.2290022 101.877398,30.1624582 101.350179,28.9379076 C100.819726,27.7166488 100.557734,26.4065114 100.557734,25.0107871 C100.557734,23.3385514 100.800319,21.7946959 101.282255,20.3693454 C101.767426,18.9472867 102.446665,17.7161525 103.323206,16.6825265 C104.199747,15.6456086 105.260654,14.8358252 106.499456,14.2531761 C107.741492,13.6705271 109.116142,13.3808484 110.629874,13.3808484" id="Fill-17" fill="#8F5F68"></path>
                        <path d="M130.524776,6.79724322 C128.816976,6.79724322 127.183568,7.05729563 125.669836,7.57081683 C124.042898,8.12383967 122.603559,8.92374771 121.377695,9.95737373 C120.0645,11.053544 119.013297,12.3965995 118.259665,13.9371631 C117.463986,15.5534382 117.056443,17.3310116 117.056443,19.2040473 C117.056443,21.0968338 117.428407,22.8414892 118.1691,24.39522 C118.44403,24.9712855 118.757774,25.5177247 119.107097,26.0378295 L118.757774,26.363718 C116.270466,28.6581044 115.921144,32.5128052 117.95886,35.2318342 C118.909794,36.4991782 119.938355,37.5755977 121.025137,38.4281745 C122.098981,39.2741678 123.224577,39.9522792 124.372814,40.4526331 C125.488706,40.9365281 126.653115,41.2788756 127.827228,41.4632166 C128.800803,41.6146395 129.745269,41.6870591 130.657389,41.6870591 C132.63365,41.6870591 134.461126,41.4171313 136.088065,40.8838593 C137.870258,40.3012102 139.438976,39.4321743 140.742467,38.303086 C142.15593,37.0752437 143.233009,35.5939325 143.954296,33.8887787 C144.627066,32.2823791 144.966685,30.5805171 144.966685,28.8128191 C144.966685,26.8541965 144.533266,25.0437051 143.6826,23.4241382 C143.346215,22.7789449 142.95161,22.1633778 142.505253,21.5840206 C144.510625,19.2600079 144.669114,15.7706971 142.783418,13.2524681 C141.900407,12.0740028 141.033569,11.1095046 140.134387,10.3095966 C139.131701,9.4175181 138.077264,8.69661333 136.993716,8.1633413 C135.861652,7.60373486 134.671367,7.22188576 133.451971,7.0243776 C132.51721,6.87295468 131.533931,6.79724322 130.524776,6.79724322 M130.524776,13.3808484 C131.197546,13.3808484 131.831502,13.4302255 132.433113,13.5256878 C133.028256,13.6244418 133.61046,13.8120746 134.176493,14.088586 C134.742525,14.3683892 135.308557,14.7601137 135.87459,15.2637595 C136.440622,15.7674053 137.029295,16.4290577 137.64061,17.2421329 L136.149519,18.6016474 C135.373247,17.307969 134.506409,16.3434708 133.545771,15.7114447 C132.588368,15.0761268 131.559806,14.7601137 130.466556,14.7601137 C129.894054,14.7601137 129.366836,14.8325334 128.881665,14.9839563 C128.399729,15.1320874 127.985717,15.3295956 127.646098,15.5830644 C127.300009,15.8365332 127.034783,16.1327954 126.843949,16.4685593 C126.653115,16.8043232 126.556081,17.1598378 126.556081,17.5351033 C126.556081,18.157254 126.727508,18.7004015 127.070362,19.1645456 C127.413216,19.6319816 127.866042,20.0533323 128.425605,20.4285978 C128.985168,20.8038633 129.622359,21.1495026 130.330708,21.4655157 C131.045526,21.7848205 131.776516,22.1074172 132.526913,22.4365974 C133.27731,22.7657777 134.0083,23.1180006 134.719884,23.4932661 C135.431467,23.8685316 136.068658,24.3063413 136.628221,24.8034035 C137.187784,25.3037575 137.64061,25.879823 137.98023,26.5315999 C138.326318,27.1866686 138.497745,27.947075 138.497745,28.8128191 C138.497745,29.6950222 138.332787,30.5179729 138.012574,31.2882547 C137.685893,32.0585365 137.200722,32.7267724 136.553828,33.2863789 C135.9037,33.8492771 135.085379,34.2936705 134.098865,34.6162671 C133.115587,34.9421556 131.96735,35.1034539 130.657389,35.1034539 C130.059012,35.1034539 129.447697,35.0540769 128.816976,34.9586146 C128.189489,34.8598605 127.552298,34.6755196 126.908638,34.3957163 C126.268213,34.1159131 125.624554,33.7241886 124.984129,33.2205428 C124.340469,32.716897 123.712982,32.0552447 123.104902,31.2388776 L124.764185,29.7048976 C125.259059,30.4192188 125.734526,31.0216187 126.193821,31.5219727 C126.653115,32.0190349 127.11241,32.4272184 127.578174,32.7432314 C128.040703,33.0625363 128.525873,33.2962543 129.027216,33.4443854 C129.528559,33.5925165 130.07195,33.6649362 130.657389,33.6649362 C131.216953,33.6649362 131.731233,33.5793493 132.203466,33.4048838 C132.672464,33.2304182 133.076773,32.999992 133.413158,32.716897 C133.749543,32.4305102 134.014769,32.1013299 134.205603,31.7260644 C134.396437,31.3507989 134.493471,30.9689498 134.493471,30.5805171 C134.493471,29.9451992 134.334982,29.3921764 134.024473,28.9214486 C133.710729,28.447429 133.296717,28.0194947 132.785671,27.6376456 C132.268155,27.2557965 131.682716,26.9101572 131.01965,26.6007277 C130.356584,26.2880065 129.687048,25.9687016 129.00781,25.6395214 C128.328571,25.3103411 127.655801,24.9548264 126.992735,24.5729773 C126.332903,24.1911282 125.747464,23.7500267 125.229948,23.2529645 C124.715668,22.7526105 124.301656,22.1798368 123.991146,21.5247681 C123.680637,20.8696994 123.525383,20.0961258 123.525383,19.2040473 C123.525383,18.3613458 123.69681,17.5877722 124.049367,16.873451 C124.39869,16.1624217 124.880626,15.5501464 125.498409,15.0300416 C126.112959,14.5132285 126.853652,14.1083368 127.710787,13.8186582 C128.567922,13.5256878 129.505918,13.3808484 130.524776,13.3808484" id="Fill-19" fill="#8F5F68"></path>
                        <path d="M148.052693,0.100070799 L146.888284,0.100070799 C143.79613,0.100070799 141.134161,2.32862117 140.542253,5.41633202 C140.370826,6.29524332 140.179993,7.12148578 139.966518,7.87201677 C139.956814,7.901643 139.947111,7.93456102 139.940642,7.96089544 C136.602669,8.22423965 133.973045,11.0617735 133.973045,14.5247499 L133.973045,15.5550841 C133.973045,18.1193983 135.415618,20.3446569 137.521258,21.4309517 L137.521258,30.2496909 C137.521258,31.5631202 137.679747,32.8140052 137.990256,33.9727197 C138.371924,35.4046538 139.012349,36.7180831 139.88889,37.8471714 C140.852762,39.0914728 142.078627,40.0724299 143.527669,40.7439577 C144.889381,41.372692 146.386941,41.688705 147.994472,41.688705 C150.514125,41.688705 152.765316,41.0863052 154.689825,39.8979644 C156.514067,38.7721679 158.001923,37.2283125 159.098408,35.3124834 C160.812677,32.3202348 159.955543,28.4885765 157.138319,26.546413 L156.12593,25.8485508 C155.618118,25.4996198 155.077962,25.2329838 154.521633,25.045351 L154.521633,21.8588861 C157.180367,21.042519 159.117815,18.5275818 159.117815,15.5550841 L159.117815,13.8071369 C159.117815,10.8346391 157.180367,8.31970193 154.521633,7.50333488 L154.521633,6.68367603 C154.521633,3.04623414 151.626782,0.100070799 148.052693,0.100070799 M148.052693,6.68367603 L148.052693,13.8071369 L152.648875,13.8071369 L152.648875,15.5550841 L148.052693,15.5550841 L148.052693,30.2496909 C148.052693,30.5624122 148.110913,30.8520908 148.22412,31.1220186 C148.337326,31.3952383 148.492581,31.632248 148.689883,31.833048 C148.890421,32.033848 149.123302,32.1918545 149.398232,32.3070676 C149.673162,32.4222807 149.96103,32.4815331 150.26507,32.4815331 C150.724365,32.4815331 151.138377,32.3696118 151.513576,32.1424774 C151.888774,31.9153431 152.21869,31.6355398 152.496855,31.299776 L153.509244,31.9976381 C152.959384,32.9555527 152.234863,33.7126673 151.332445,34.2689819 C150.430028,34.8252966 149.317371,35.1050998 147.994472,35.1050998 C147.308765,35.1050998 146.713622,34.9865949 146.212279,34.7561687 C145.707702,34.5191589 145.29369,34.1899787 144.963774,33.7653361 C144.630623,33.3374018 144.388038,32.8271724 144.229549,32.2313561 C144.067826,31.6355398 143.990198,30.9738875 143.990198,30.2496909 L143.990198,15.5550841 L140.441985,15.5550841 L140.441985,14.5247499 C141.586987,14.5247499 142.528218,14.3173663 143.265677,13.8960156 C144.003136,13.4746648 144.604748,12.905183 145.07698,12.18757 C145.545978,11.469957 145.914708,10.637131 146.183169,9.69238362 C146.448396,8.74763627 146.684512,7.74363647 146.888284,6.68367603 L148.052693,6.68367603" id="Fill-21" fill="#8F5F68"></path>
                    </g>
                    <path d="M161.572758,67.284715 C161.537056,68.3832674 161.183285,69.9890925 160.524427,70.6288377 C159.86557,71.2685829 159.628641,71.8534005 159.842851,72.1441938 C160.10899,72.4996078 160.573112,72.5674595 160.972321,72.3219008 C162.501,71.4075175 163.448717,70.4414376 163.828453,69.4075059 C164.201697,68.3768053 164.32503,67.462422 164.19196,66.6708181 C164.05889,65.8759832 163.361086,65.061762 162.092054,64.2281546 C160.823023,63.3977782 158.801012,62.9745125 156.022774,63.0068228 C151.641209,63.0552884 146.996749,64.5415651 142.105623,67.5141186 C137.211252,70.4899031 135.153539,74.2508295 134.83547,77.1684553 C134.605032,79.3041704 132.774511,82.5869034 130.346799,86.2961331 C130.327326,86.3349056 130.343554,86.3607539 130.327326,86.3995263 C126.783126,91.5821087 121.56744,95.8567698 114.696496,99.4399892 C112.028609,100.839028 109.61388,101.740487 107.445816,102.112056 C105.491962,102.448084 103.973019,102.286532 102.895479,101.604784 C101.814693,100.926266 101.198028,100.115276 101.042239,99.1685821 C100.883204,98.2218885 100.905923,97.2299603 101.107151,96.1831045 C101.730307,92.7969784 103.645213,89.0812865 106.858362,85.129729 C110.07151,81.1814025 113.278167,78.3187043 116.475087,76.519017 C117.958328,75.6337131 119.178675,75.1393645 120.126392,75.0262782 C121.291564,74.8841126 121.960158,75.3203025 122.125684,76.3251548 C122.294455,77.3300072 121.989368,78.4414837 121.229897,79.6531223 C119.353938,82.2476446 116.160263,84.948791 111.668347,87.8890341 C109.256863,89.5110144 107.234852,90.5384839 105.592576,90.9423635 C105.443278,90.9682118 105.248542,91.0360635 105.008367,91.1394567 C104.768192,91.2428499 104.729245,91.4270189 104.813631,91.6434984 C104.99863,92.1216918 105.563365,92.3317091 106.563012,92.0990745 C109.344494,91.4431741 112.638783,89.9536663 116.432894,87.7080961 C120.22376,85.4657568 122.849454,83.1555658 124.296993,80.690285 C125.218745,79.533574 125.543305,78.1313042 125.270674,76.4834756 C124.741641,73.3105979 122.508665,71.9212522 118.578238,72.4123698 C115.085968,72.8517907 110.658964,75.3235336 105.332928,79.979457 C101.717324,83.1394106 99.0754026,86.1571986 97.358478,88.9778934 C97.2059346,89.0489762 97.0696192,89.1620624 96.9592686,89.3300763 C95.3494489,92.1701573 93.1002452,95.1976384 90.2278855,98.4577541 C87.3522801,101.721101 85.2880758,103.885895 84.0093078,104.89721 C82.7305397,105.908524 81.8477353,106.480417 81.3511579,106.606428 C79.8549343,106.984459 78.9688844,106.296248 78.6735344,104.52564 C78.5307278,103.672647 78.6118679,102.603174 78.9137091,101.31399 C80.2476525,95.9440078 82.6883468,90.5901805 86.2682483,85.3429774 C87.9462257,82.9358553 88.9426262,81.1103197 89.2574498,79.8437535 C89.4294668,79.1103082 89.2055201,78.6676562 88.5888553,78.5157975 C87.9689449,78.3671698 87.0536845,78.4253285 85.8365829,78.6999666 C84.3403594,79.0747668 83.5938704,79.265398 82.1008925,79.6563534 C79.8192327,80.1959364 77.0637147,80.780754 73.8440753,81.4334234 C75.126089,78.7290459 75.7687186,77.3784727 77.0572235,74.6934815 C78.1087993,72.1441938 78.2126586,70.9777896 77.3623103,71.187807 C76.9338905,71.2912002 76.5509092,71.452752 76.2198576,71.6595383 C75.8823148,71.8727867 75.0838961,72.4252939 73.8310929,73.320291 C72.5717985,74.2217502 71.1761886,75.7047959 69.6377722,77.7855833 C68.0993558,79.8663707 67.2392707,81.4398855 67.0412889,82.4867412 C66.8465526,83.530366 66.9926048,84.1927285 67.482691,84.4705976 C67.9695317,84.7484667 68.6446173,84.8260116 69.5144393,84.7129253 C67.5216383,90.0538285 64.9673478,95.3010316 61.8645501,100.503 C61.5270073,101.123359 61.3777095,101.553087 61.4199023,101.798646 C61.4588496,102.044205 61.6698139,102.199294 62.0495496,102.273608 C62.4260396,102.347922 63.013494,101.685559 63.8119126,100.286521 C64.6103313,98.890713 67.5054103,93.3300994 72.5880265,83.8728559 C73.8603033,83.530366 75.5512631,83.2589589 77.6673971,83.0747899 C79.7835311,82.8906208 81.0493167,83.1458727 81.4550172,83.8082351 C81.6367711,84.1054905 81.7308936,84.2541181 81.9126474,84.5546045 C82.0327348,84.8453978 81.6887007,85.6854673 80.8870365,87.0877371 C80.6501074,87.527158 80.53002,87.7468685 80.2930909,88.1862894 C80.1178283,88.4835448 79.8192327,88.9068106 79.3908129,89.4593178 C74.0485484,96.5159013 71.7279414,102.050667 72.3510974,105.8019 C72.9710078,109.556364 75.0741593,110.91663 78.6865168,109.966706 C81.6627359,109.184795 84.2981665,107.540197 86.5798263,105.326937 C88.8647317,103.110447 91.3346365,100.435148 93.7071732,97.2784258 C94.184277,96.6451427 94.6062056,96.0603251 95.0216429,95.4787386 C94.8885731,96.5385185 94.8593627,97.5110605 94.9956781,98.3349747 C95.2390984,99.8018653 95.8395352,100.9715 96.8034796,101.847111 C99.3220685,104.044216 103.174601,104.625803 108.383796,103.737268 C114.459567,102.703336 120.360075,99.4819927 126.07883,94.1087791 C128.435138,91.9019813 130.372764,89.5530178 131.924163,87.0457336 C131.953373,87.0134232 131.985829,87.0101922 132.01504,86.9746508 C133.822841,84.0182525 135.117838,81.7791443 135.900028,80.2347089 C136.591342,81.2912578 138.019408,82.2928791 140.174489,83.2557279 C140.414664,83.3655831 141.430538,83.7242282 143.238339,84.3575113 C147.081135,85.7307018 149.116129,87.1329716 149.340075,88.4738517 C149.74253,90.9165152 148.661744,93.3656408 146.091225,95.8826181 C143.517461,98.3995955 140.726242,100.183128 137.717567,101.236445 C137.01327,101.482004 136.318711,101.637094 135.624152,101.698484 C134.932838,101.759873 134.264244,101.543394 133.628105,101.045814 C132.988721,100.548235 133.14451,99.7889411 133.865034,98.7937819 C134.527138,97.8761676 135.169767,97.1524154 135.822134,96.848698 C136.471255,96.5482116 136.825025,96.2994218 136.867218,96.1120217 C136.909411,95.9246216 136.847745,95.7727629 136.678973,95.6629076 C136.513447,95.5562834 136.325202,95.5368972 136.117484,95.6176731 C133.848806,96.6774531 132.161092,97.737233 131.301007,98.7614715 C130.320834,99.9343378 129.882678,100.942421 129.967064,101.462618 C130.054695,101.976353 130.226712,102.351153 130.48636,102.570863 C131.232849,103.482016 132.388284,103.860047 133.955911,103.708188 C135.526784,103.559561 137.055463,103.268767 138.538704,102.839039 C145.117544,101.003811 149.869109,98.5417611 152.780416,95.246104 C154.831638,92.9585302 155.522951,90.9262083 154.854357,89.1006727 C154.666112,88.4350792 153.997517,87.7080961 152.842082,86.9488025 C151.689893,86.1895089 150.712966,85.6305397 149.921038,85.2945119 C149.125865,84.9584841 147.788676,84.4059769 145.90298,83.7016109 C144.017284,83.000476 142.67685,82.4479688 141.884922,82.1280962 C139.989489,81.3817268 138.954142,80.3962607 138.775634,79.3267877 C138.600371,78.2605456 138.898966,76.9875173 139.677911,75.8889649 C141.622028,72.9196425 144.591756,70.0666374 148.577358,68.1441707 C152.559715,66.218473 155.977336,64.531872 158.826976,64.531872 L159.482588,64.531872 C160.910654,64.531872 161.608459,66.1861627 161.572758,67.284715" id="Fill-24" fill="#FFFFFF"></path>
                    <path d="M193.259571,51.0841296 C194.808252,50.1828513 196.105884,49.8105841 197.152466,49.9510007 C198.195788,50.0914172 198.802219,50.6759419 198.971759,51.6915128 C199.138038,52.7103492 198.877208,53.8924607 198.182747,55.2476437 C196.487349,58.6339686 193.432371,62.1607099 188.991733,65.9650189 C184.551094,69.7758589 180.162621,72.8617576 175.842616,75.203122 C180.338681,63.3950694 186.158461,55.3031573 193.259571,51.0841296 M212.238249,89.7835852 C211.889389,89.5778587 211.56009,89.6007172 211.253614,89.8488953 C209.581039,91.9845331 207.288991,94.0973124 204.361169,96.2394813 C201.433347,98.3849156 199.095653,99.8184707 197.351349,100.478102 C195.610306,101.137733 194.149655,100.935272 192.972658,99.8511257 C192.297759,99.2404769 191.857607,98.3228711 191.655464,97.0885116 C191.035991,93.3266541 192.036928,89.182733 194.655014,84.7351203 C195.192977,83.7032219 195.773325,82.5896859 196.392797,81.391247 C197.009009,80.1895425 197.090519,78.8474215 196.751439,77.4367249 C196.435182,76.1174624 195.512495,75.2945561 193.921429,75.118219 C190.732776,74.7688104 185.695487,77.7142925 178.760657,84.3465256 C175.333996,87.6936644 172.523548,90.7240496 170.332572,93.3658401 C171.591079,87.7491779 172.927835,83.0501216 174.33632,79.2588746 C179.89853,75.5982477 185.982401,71.3824855 192.317321,66.6768982 C199.509722,61.3312726 202.734239,56.6485438 202.043038,52.4523746 C201.951747,51.9005049 201.557241,51.2082187 200.86278,50.3820468 C199.610794,48.7558272 197.403516,47.7076013 194.224644,47.3059446 C193.288915,47.1883866 192.206468,47.2700241 190.974044,47.5475917 C183.644708,49.1836079 176.925062,57.6804422 170.818369,73.1393252 C170.407561,74.1646926 169.908722,75.0953605 169.315333,75.9345943 C168.157898,75.5329377 167.355844,75.4349726 166.918953,75.6374337 C166.478802,75.8431603 166.322303,76.2252239 166.449458,76.7803591 C166.579873,77.3322289 166.997202,77.7730715 167.707965,78.0996217 C167.000462,79.1249891 165.78108,80.6761022 164.040037,82.7758195 C162.298993,84.8788023 161.16112,86.3123574 160.623157,87.0503607 C160.085194,87.7916295 159.87327,88.5198362 159.990643,89.22845 C160.108017,89.9370638 160.417753,90.0448253 160.923112,89.5484691 C163.978089,86.2829679 166.504885,83.4093267 168.493717,80.8818288 C167.685142,83.5007608 166.237533,88.8692449 164.141108,97.0493256 C163.518376,99.508248 163.156473,100.866697 163.048881,101.114875 C162.941288,101.359787 162.941288,101.558983 163.0391,101.712461 C163.136911,101.86594 163.502074,101.947577 164.121546,101.950843 C164.747539,101.950843 166.289699,101.398973 168.744766,100.337685 C169.279469,100.037259 171.359592,97.4313892 174.965573,92.6474299 C178.568294,87.866736 181.349399,84.7122617 183.315409,83.0860421 C186.259533,80.8589702 188.310313,79.8336028 189.471009,79.9413644 C190.054617,79.9968779 190.383915,80.2548525 190.462164,80.7185537 C190.537153,81.1789894 190.299145,81.9300547 189.757922,82.9750151 C187.178961,88.1410381 185.946537,92.0890291 185.97262,94.6099961 C185.982401,95.4524954 186.031307,96.2754018 186.155201,97.0460601 C186.282356,97.8167184 186.504062,98.4861461 186.813798,99.0576089 C188.147294,101.47408 190.198074,102.786811 192.959616,103.04152 C196.011333,103.322354 199.020665,102.577819 201.990872,100.827511 C203.539553,99.9294977 205.512083,98.3881811 207.895422,96.2362158 C210.27876,94.0842504 211.863305,92.2849592 212.665359,90.7991561 C212.776212,90.6358811 212.821857,90.479137 212.795774,90.3256584 C212.769691,90.1721799 212.58385,89.9925773 212.238249,89.7835852" id="Fill-26" fill="#FFFFFF"></path>
                    <path d="M31.8301222,71.0814332 C33.4911224,69.9558268 35.9165602,68.7237877 39.1221648,67.4401449 C42.3309153,66.156502 47.1503326,64.5503359 53.6716459,62.8280613 C60.1898135,61.109012 64.5939807,60.044685 66.7960643,59.3770618 C68.9918563,58.7126637 70.3508565,58.3224105 70.8636274,58.1740498 C70.6748773,58.4320684 70.4578148,58.8513487 70.209294,59.4286655 C69.9607731,60.0092075 69.7814606,60.4188121 69.6682105,60.6542541 C68.8219813,62.9280436 68.6395229,65.5275816 69.1051063,68.4335167 C69.4605855,70.6266753 70.1463773,71.742606 70.7063357,72.0135256 C71.2411274,72.2715443 71.8797317,72.4940854 72.4333984,72.1651116 C72.9839193,71.8361378 72.9744818,71.4168575 72.3987942,70.9072706 C71.8262525,70.400909 71.45819,69.6591054 71.3040441,68.6947606 C71.1090024,67.4788477 71.477065,65.9436367 72.3044192,64.1633079 L72.3044192,55.8454314 C72.1817317,56.0228192 72.0558984,56.1615042 71.9332108,56.3453425 C68.1393353,57.2935611 62.3635846,58.3514376 54.7066252,59.8124682 C47.0496659,61.2767241 40.7579984,63.1376837 35.7561227,65.1921573 C26.6583715,68.9302026 19.3820581,74.0163955 13.7950573,80.1024106 C13.2948698,80.647475 12.8324322,81.1925394 12.3857238,81.7408291 C12.3888696,81.7311534 12.3920155,81.7279282 12.3951613,81.7182525 C12.3951613,81.7182525 12.3542655,81.7730814 12.3385363,81.7924328 C10.3786819,84.1952316 8.92530667,86.620607 7.95009821,89.0427572 C5.8518271,93.4258492 4.44249358,98.7249074 7.4090148,101.946915 C7.49080648,102.040447 7.57259816,102.133979 7.66382734,102.224285 C7.8651607,102.421025 8.07907739,102.604863 8.31816076,102.782251 C8.70509831,103.069297 9.13922337,103.349892 9.65828594,103.617586 C11.4891612,104.565805 13.5842865,104.768994 15.9530993,104.259408 C16.2267868,104.188453 16.4847452,104.091696 16.714391,103.972362 C16.9503286,103.853028 17.1673911,103.643388 17.3718703,103.327315 C17.5732037,103.017693 17.4662453,102.808053 17.0541411,102.704845 C16.638891,102.598413 15.8272659,102.501656 14.6287033,102.421025 C13.4332864,102.340394 12.5304321,102.217835 11.9264321,102.040447 C11.3255778,101.86951 10.7813486,101.492158 10.2968902,100.911616 C9.80614012,100.327848 9.52301508,99.7602073 9.43493174,99.2151428 C9.34684839,98.663628 9.33426506,98.1604916 9.4034734,97.7025084 C9.63311927,93.3742454 11.7974529,88.7105581 15.9751201,83.8791587 C20.1496415,79.0477593 25.4126214,74.729172 31.8301222,71.0814332" id="Fill-28" fill="#FFFFFF"></path>
                    <path d="M40.0203292,114.576304 C39.3848613,114.835762 38.3300491,116.405014 36.8720212,119.30594 C36.2494562,120.512576 35.4559277,121.469131 34.4914358,122.191237 C33.5237182,122.913343 32.9527648,122.744539 32.7721241,121.678573 C32.39794,119.490374 34.3075694,112.313081 38.6203644,100.384271 C50.9297326,94.1103916 59.3391988,90.1716334 63.3778071,87.6239446 C65.0455071,86.5611051 65.8358099,85.7639754 65.6777493,85.5107695 C65.6164605,85.4138636 65.3971112,85.3357136 65.1229245,85.2919496 C64.8422864,85.2450596 64.5326168,85.2606896 64.2003671,85.3294616 C63.8648916,85.4013596 63.1132976,85.6295575 61.9423593,86.0046773 C60.7746466,86.3829231 55.8618668,88.4054442 47.4233691,92.5505184 C44.9073032,93.8884457 42.4944606,95.1200892 40.1880669,96.2454487 C46.4459743,80.109044 52.1426054,71.3843819 57.0940939,69.7494846 C57.5327926,69.6056887 58.0295543,69.6088147 58.597282,69.7526106 C58.6005077,68.4303132 57.6940789,67.6456876 55.8876726,67.4206157 C54.0844921,67.1955438 52.6006584,67.2893237 51.442623,67.6894516 C48.8330111,68.5928652 46.2072706,71.0280181 43.5750786,75.0136663 C40.9428867,79.0024405 39.5816305,82.0190291 39.4655044,83.9977862 C39.7300139,84.2322361 39.917106,84.6417419 40.0171035,85.2388077 C40.1203267,85.8327474 39.7332396,87.3676127 38.8687452,89.8527816 C38.0042508,92.3348245 37.0333074,95.0700732 35.9623666,98.0616539 C35.8365633,98.1116698 35.7720488,98.1398038 35.6462455,98.1929458 C35.5043136,98.2523398 35.1010979,98.1022918 34.4365985,97.739676 C33.7753247,97.3833122 33.0398593,97.3739342 32.233428,97.717794 C31.4302224,98.0647799 30.3431529,98.8650355 28.9883482,100.131065 C27.6303178,101.403346 27.0238814,102.422422 27.1529104,103.172662 C27.2787137,103.919775 27.6819294,104.398053 28.3496546,104.604369 C29.014154,104.810685 29.7883281,104.726283 30.6624997,104.344911 C31.5302198,103.963539 32.7914785,103.316457 34.4462756,102.41617 C31.4947369,111.372156 29.707685,118.024281 28.9818968,122.406931 L28.9689938,122.397553 C28.9689938,122.397553 28.9464138,122.581987 28.9141565,122.844571 C28.6141641,124.795194 28.520618,126.308177 28.6819043,127.255355 C28.7012586,127.377269 28.7399673,127.492931 28.7689989,127.611719 C29.049637,130.581417 30.388313,132.491402 35.0752921,125.617331 C35.8720463,124.801446 36.9945987,122.703901 38.4558524,119.343452 C38.7848764,118.602591 38.9461626,118.233723 39.2751866,117.495987 C40.1106495,116.211202 40.4977366,115.382812 40.433222,115.010818 C40.3687075,114.632572 40.2332271,114.488776 40.0203292,114.576304" id="Fill-30" fill="#FFFFFF"></path>
                    <path d="M81.5324401,61.0144451 L86.2995222,61.0144451 C87.5807554,61.0144451 88.6926485,60.88858 89.6352016,60.6335374 C90.5745596,60.3784948 91.3541628,60.024085 91.9708162,59.5669958 C92.5842745,59.1132187 93.0411731,58.5633867 93.3351219,57.9174997 C93.6322657,57.2749249 93.7792401,56.5661053 93.7792401,55.7976654 C93.7792401,54.9397949 93.6482412,54.1382325 93.3830483,53.3962905 C93.1210505,52.6543485 92.6865176,52.0117737 92.0826446,51.4718784 C91.4787716,50.9319831 90.6959732,50.504704 89.7278594,50.1933534 C88.7597455,49.8786905 87.5743652,49.7230151 86.1685233,49.7230151 L81.5324401,49.7230151 L81.5324401,61.0144451 Z M81.5324401,48.0437089 L87.1462224,48.0437089 C88.0248736,48.0437089 88.810867,47.9145315 89.5010076,47.6528644 C90.1911482,47.3945096 90.7726555,47.0301631 91.2455296,46.5697616 C91.7152086,46.1060478 92.0730593,45.5628403 92.3190816,44.9368267 C92.5651039,44.3141254 92.6865176,43.6284915 92.6865176,42.8865494 C92.6865176,42.0949238 92.5427383,41.369543 92.2519846,40.7203437 C91.964426,40.0678322 91.5107225,39.5113757 90.8972642,39.0509742 C90.2806108,38.5872605 89.5010076,38.2328507 88.5616496,37.9844326 C87.6190965,37.7393267 86.4848377,37.6134616 85.1684585,37.6134616 L81.5324401,37.6134616 L81.5324401,48.0437089 Z M77.1232087,35.7983534 L87.6925837,35.7983534 C89.0888403,35.7983534 90.3700735,35.9606532 91.5362833,36.2852529 C92.7056881,36.6098525 93.7057529,37.0669418 94.5428679,37.6532085 C95.3767877,38.2394751 96.0253921,38.9416703 96.491876,39.7631061 C96.9551648,40.5845419 97.1916018,41.4887837 97.1916018,42.4791438 C97.1916018,43.2210858 97.1149195,43.883534 96.961555,44.4698007 C96.8113855,45.0560674 96.5557779,45.5992749 96.1883419,46.0994233 C95.8241011,46.602884 95.3352515,47.0765345 94.7217932,47.5269993 C94.1051398,47.9774641 93.3319268,48.4279288 92.4053492,48.8850181 L92.4053492,48.9645119 C93.3319268,49.1201872 94.178627,49.3818543 94.9358646,49.7528253 C95.6962973,50.1237963 96.3449016,50.5974468 96.8784825,51.1704645 C97.4120634,51.7434822 97.8242307,52.4026182 98.1117893,53.1511847 C98.4025429,53.8997512 98.5463222,54.7311237 98.5463222,55.64199 C98.5463222,56.672097 98.3290557,57.6359592 97.8945228,58.5335765 C97.4631849,59.4311939 96.8465315,60.2128828 96.0509528,60.8786432 C95.252179,61.5410915 94.2872603,62.0611133 93.1561966,62.442021 C92.0283279,62.8163043 90.7630702,63.005102 89.3700087,63.005102 L77.1232087,63.005102 L77.1232087,35.7983534 Z" id="Fill-32" fill="#FFFFFF"></path>
                    <path d="M115.678262,48.5696696 C115.678262,47.7884963 115.540682,47.0626561 115.265523,46.3921489 C114.987088,45.7183869 114.607106,45.1357618 114.122302,44.6442736 C113.640773,44.1527853 113.074076,43.7654536 112.425486,43.4822782 C111.773621,43.2023578 111.075895,43.0623976 110.329035,43.0623976 C109.709926,43.0623976 109.113748,43.2023578 108.540499,43.4822782 C107.967251,43.7654536 107.459517,44.1495305 107.014021,44.6345089 C106.571801,45.1227423 106.201646,45.6988576 105.913384,46.3726196 C105.625122,47.0431267 105.448234,47.768967 105.382719,48.5501403 L115.678262,48.5696696 Z M111.563976,63.005102 C110.158698,63.005102 108.84514,62.741456 107.613475,62.2174189 C106.385085,61.6933818 105.307378,60.9805611 104.390181,60.075702 C103.466432,59.1740978 102.739225,58.1195138 102.205285,56.9086951 C101.668069,55.7011313 101.402737,54.4056855 101.402737,53.0223577 C101.402737,51.372129 101.648415,49.8423312 102.136495,48.4362192 C102.627851,47.0268523 103.315749,45.8127787 104.206741,44.7874887 C105.091182,43.7654536 106.165613,42.9647509 107.420208,42.3886355 C108.678079,41.8125202 110.070254,41.52609 111.603284,41.52609 C112.969253,41.52609 114.217297,41.7636969 115.350691,42.2356558 C116.484085,42.7108696 117.45697,43.3455729 118.269345,44.1462756 C119.078444,44.9469782 119.710655,45.8713667 120.159427,46.9194409 C120.611474,47.9675152 120.837498,49.0676676 120.837498,50.2198983 L105.363065,50.2198983 C105.363065,51.6032261 105.543229,52.8856524 105.903557,54.0704319 C106.263884,55.2519566 106.768343,56.2739917 107.410381,57.1300275 C108.055695,57.9893182 108.828762,58.6598253 109.729581,59.1480587 C110.6304,59.6330371 111.616387,59.8771538 112.687543,59.8771538 C113.588362,59.8771538 114.446596,59.7306838 115.272074,59.4442535 C116.097552,59.1545684 116.844413,58.7770013 117.512657,58.3115522 C118.184176,57.8461031 118.754149,57.3057915 119.222575,56.7003822 C119.694276,56.091718 120.025123,55.4667793 120.218389,54.8255662 L121.397643,55.3463484 C121.099554,56.4074422 120.621301,57.4034382 119.956333,58.3310815 C119.29464,59.2587249 118.521574,60.0691922 117.640409,60.7592287 C116.759244,61.4492651 115.789636,61.9960865 114.74141,62.3996927 C113.693184,62.8032989 112.635131,63.005102 111.563976,63.005102 L111.563976,63.005102 Z" id="Fill-34" fill="#FFFFFF"></path>
                    <path d="M129.806632,61.5827156 C130.429653,61.5827156 131.005858,61.4948336 131.528044,61.3255794 C132.050229,61.1530702 132.500389,60.925228 132.874922,60.6420527 C133.253057,60.3621322 133.54476,60.0366433 133.757236,59.6623311 C133.969711,59.2945287 134.07775,58.9169615 134.07775,58.5296298 C134.07775,57.9046911 133.904888,57.3578697 133.555564,56.8891657 C133.20624,56.4237166 132.748877,56.0005811 132.176274,55.6230139 C131.600069,55.2454468 130.948237,54.9036835 130.209975,54.594469 C129.471713,54.2885095 128.729849,53.9727853 127.969979,53.6472964 C127.21371,53.3185526 126.464644,52.9670246 125.726382,52.5894575 C124.995322,52.2118903 124.339889,51.7789901 123.763684,51.284247 C123.191081,50.7927588 122.730117,50.2231532 122.384394,49.5786852 C122.038671,48.9309623 121.86581,48.1660634 121.86581,47.2839885 C121.86581,46.4507369 122.056678,45.6825831 122.449217,44.9795271 C122.838155,44.2764711 123.374746,43.6678069 124.06259,43.1567893 C124.746834,42.6457718 125.571527,42.2454204 126.525866,41.9557353 C127.480205,41.6693051 128.528177,41.52609 129.658979,41.52609 C130.408045,41.52609 131.113896,41.5716584 131.783734,41.6693051 C132.44637,41.7636969 133.0946,41.9492255 133.724824,42.2258911 C134.355048,42.4993018 134.985272,42.8866336 135.615496,43.3878865 C136.24572,43.8858845 136.901153,44.5368622 137.581795,45.3440747 L135.921605,46.6883438 C135.060899,45.4091725 134.092155,44.45549 133.022575,43.8272965 C131.956596,43.2023578 130.811389,42.8866336 129.594156,42.8866336 C128.95673,42.8866336 128.369721,42.961496 127.829529,43.107966 C127.292938,43.254436 126.831975,43.4529842 126.45384,43.7036107 C126.068503,43.9509822 125.773198,44.2439222 125.560723,44.5759209 C125.348247,44.9111745 125.240209,45.2627025 125.240209,45.6305049 C125.240209,46.2456789 125.431077,46.7827356 125.812812,47.2449298 C126.194548,47.7038692 126.698727,48.120495 127.321749,48.4915523 C127.94477,48.8626096 128.654222,49.204373 129.442902,49.5200972 C130.238785,49.8325665 131.052675,50.1515457 131.888172,50.4770345 C132.723668,50.8057783 133.537558,51.1540514 134.329839,51.5251088 C135.125722,51.8961661 135.831573,52.3290663 136.454594,52.8205546 C137.077616,53.3152977 137.581795,53.8816484 137.959929,54.5293713 C138.345266,55.1770942 138.536134,55.9257186 138.536134,56.7850093 C138.536134,57.6540646 138.352469,58.4710418 137.995942,59.2326858 C137.632213,59.9943298 137.092021,60.6518173 136.371765,61.2084034 C135.647908,61.7649894 134.736784,62.2043994 133.638394,62.5233785 C132.543604,62.8423576 131.26515,63.005102 129.806632,63.005102 C129.140395,63.005102 128.459753,62.9562787 127.757504,62.858632 C127.058855,62.7609854 126.349403,62.5787116 125.632748,62.302046 C124.919695,62.0286354 124.20304,61.6413036 123.489987,61.1433056 C122.773332,60.6420527 122.074684,59.9910749 121.397643,59.1838624 L123.2451,57.6670842 C123.796096,58.3701402 124.325484,58.9690398 124.836866,59.4637829 C125.348247,59.9552711 125.859629,60.3588773 126.378213,60.6713467 C126.893196,60.9870709 127.433388,61.2149131 127.991587,61.3613831 C128.549785,61.511108 129.1548,61.5827156 129.806632,61.5827156" id="Fill-36" fill="#FFFFFF"></path>
                    <path d="M152.81821,57.1665788 C152.280511,58.083554 151.56464,58.8083111 150.676959,59.3408499 C149.789279,59.8733888 148.694791,60.1412338 147.393496,60.1412338 C146.718986,60.1412338 146.133562,60.0277935 145.640406,59.8072153 C145.144069,59.583486 144.736817,59.2652231 144.412289,58.8587289 C144.084579,58.4490837 143.845955,57.9606604 143.690054,57.3903082 C143.530972,56.8199559 143.454612,56.1865813 143.454612,55.4933354 L143.454612,41.4267469 L139.964342,41.4267469 L139.964342,40.4435982 C141.090646,40.4435982 142.016506,40.2419267 142.741923,39.8385836 C143.467339,39.4352406 144.059126,38.8900973 144.523647,38.2031536 C144.984986,37.51621 145.347694,36.7189773 145.611771,35.8146066 C145.875848,34.9102358 146.104927,33.9522961 146.305371,32.9344852 L147.450765,32.9344852 L147.450765,39.7535035 L151.971891,39.7535035 L151.971891,41.4267469 L147.450765,41.4267469 L147.450765,55.4933354 C147.450765,55.7926916 147.508035,56.0699899 147.619393,56.3315327 C147.730751,56.5899243 147.886651,56.8168048 148.080732,57.009023 C148.274813,57.2012411 148.503892,57.3524948 148.774332,57.4627839 C149.044772,57.5762241 149.327939,57.6329442 149.627014,57.6329442 C150.078809,57.6329442 150.489242,57.5226551 150.855131,57.305228 C151.224203,57.090952 151.548731,56.8199559 151.822353,56.4985419 L152.81821,57.1665788 Z" id="Fill-38" fill="#FFFFFF"></path>
                </g>
                <text id="" font-family="SourceSansPro-Regular, Source Sans Pro" font-size="11.4171493" font-weight="normal" fill="#FFFFFF">
                    <tspan x="58.4982389" y="124">bestfreshfarmssc.com</tspan>
                </text>
            </g>
        </g>
    </g>
</svg>