<?xml version="1.0" encoding="UTF-8" standalone="no"?>
<svg width="154px" height="111px" viewBox="0 0 154 111" version="1.1" xmlns="http://www.w3.org/2000/svg" xmlns:xlink="http://www.w3.org/1999/xlink">
    <!-- Generator: Sketch 3.8.3 (29802) - http://www.bohemiancoding.com/sketch -->
    <title>best-fresh-logo-sm</title>
    <desc>Created with Sketch.</desc>
    <defs>
        <polygon id="path-1" points="111.786214 0.092877551 0.780637268 0.092877551 0.780637268 110.998867 111.786214 110.998867 111.786214 0.092877551"></polygon>
        <polygon id="path-3" points="4.6038732e-20 0.856781609 4.6038732e-20 44.7533333 57.4036311 44.7533333 57.4036311 0.856781609 0 0.856781609"></polygon>
    </defs>
    <g id="Page-1" stroke="none" stroke-width="1" fill="none" fill-rule="evenodd" opacity="0.874591884">
        <g id="bestfresh" transform="translate(-111.000000, -32.000000)">
            <g id="best-fresh-logo-sm" transform="translate(111.000000, 32.000000)">
                <path d="M132,55 C132,85.3761468 107.375633,110 76.9988532,110 C46.6243666,110 22,85.3761468 22,55 C22,24.6238532 46.6243666,0 76.9988532,0 C107.375633,0 132,24.6238532 132,55" id="Fill-1" fill="#8F5F68"></path>
                <g id="Group-5" transform="translate(20.000000, 0.000000)">
                    <mask id="mask-2" fill="white">
                        <use xlink:href="#path-1"></use>
                    </mask>
                    <g id="Clip-4"></g>
                    <path d="M56.2845592,2.35705102 C26.9296051,2.35705102 3.04795434,26.2175204 3.04795434,55.5464388 C3.04795434,84.8730918 26.9296051,108.733561 56.2845592,108.733561 C85.637246,108.733561 109.518897,84.8730918 109.518897,55.5464388 C109.518897,26.2175204 85.637246,2.35705102 56.2845592,2.35705102 M56.2845592,110.998867 C25.6803134,110.998867 0.780637268,86.1235408 0.780637268,55.5464388 C0.780637268,24.9670714 25.6803134,0.091744898 56.2845592,0.091744898 C86.8888051,0.091744898 111.786214,24.9670714 111.786214,55.5464388 C111.786214,86.1235408 86.8888051,110.998867 56.2845592,110.998867" id="Fill-3" fill="#FFFFFF" mask="url(#mask-2)"></path>
                </g>
                <g id="Group-23" transform="translate(0.000000, 19.000000)">
                    <path d="M99.1254971,46.5797701 C98.87185,46.3062069 98.5842324,46.0602299 98.2671735,45.8464368 C98.1607324,45.7774713 98.0565559,45.7131034 97.9501147,45.6533333 C98.1992324,45.7429885 98.4913794,45.8464368 98.8356147,45.9705747 C99.0711441,46.0556322 99.2840265,46.1383908 99.4719971,46.2142529 C99.3791441,46.32 99.2727029,46.4326437 99.1526735,46.5544828 C99.1436147,46.5613793 99.1345559,46.5705747 99.1254971,46.5797701 M109.450291,22.3912644 L109.450291,22.9291954 L109.205703,22.9291954 C105.308144,22.9291954 101.263379,23.7406897 97.1846441,26.2671264 C94.4284971,27.9774713 92.3449676,29.9291954 91.1288206,32.3843678 C89.7224382,30.0786207 87.2471147,28.6027586 84.1489971,28.6027586 C83.6417029,28.6027586 83.1094971,28.5705747 82.5637029,28.6395402 C79.12135,29.0809195 75.3053206,31.1682759 70.9004676,35.0947126 C69.5031441,36.3406897 68.26435,37.5705747 67.1931441,38.8096552 C67.49435,36.0786207 65.9045265,33.674023 63.2842618,33.0211494 C62.7701735,32.8947126 62.2266441,32.3268966 61.6627324,32.3268966 C60.9425559,32.3268966 60.1657618,32.1245977 59.2847912,32.1245977 L59.2757324,32.1245977 C59.3595265,32.1245977 59.1851441,30.382069 58.4649676,29.2901149 C57.5794676,27.9475862 56.0960853,27.3981609 54.4949382,27.3981609 C54.0895559,27.3981609 53.6819088,27.5728736 53.2787912,27.674023 C52.5087912,27.8671264 51.7931441,28.2372414 51.1499676,28.6510345 C50.8849971,28.8234483 50.2531441,29.2947126 49.2612029,30.0165517 C47.9839088,30.9452874 46.6975559,32.3314943 45.3319382,34.2142529 C43.7987324,36.3314943 42.9924971,37.9521839 42.7162029,39.4510345 C42.3742324,41.3177011 42.7229971,42.703908 43.2755853,43.6947126 C42.2428794,46.0556322 41.0335265,48.4257471 39.6611147,50.7728736 C39.6339382,50.8211494 39.6044971,50.8717241 39.5773206,50.9222989 C39.1062618,51.8027586 38.5129088,53.1590805 38.7778794,54.7912644 C39.1130559,56.8602299 40.6960853,58.4694253 42.8090559,58.8901149 C43.0989382,58.9498851 43.43185,58.982069 43.7239971,58.982069 C44.8495559,58.982069 45.7577029,58.6211494 46.4892029,58.1085057 C47.4652912,62.9268966 50.9099088,64.657931 53.8766735,64.657931 C54.6919676,64.657931 55.55935,64.5383908 56.4493794,64.2993103 C59.1919382,63.5636782 61.71935,62.0648276 63.9636735,59.8441379 C64.5434382,59.2717241 65.10735,58.6901149 65.6531441,58.0993103 C67.6619382,59.5774713 70.1191441,60.303908 73.0224971,60.303908 C74.1820265,60.303908 75.4479971,60.1866667 76.7796441,59.9544828 C80.23785,59.3544828 83.6213206,57.9177011 86.8892912,55.6717241 C87.20635,56.5912644 87.6796735,57.2625287 88.1280853,57.7337931 C89.4302912,59.211954 91.2941441,60.0211494 93.4116441,60.0211494 C93.6947324,60.0211494 93.9868794,60.0073563 94.2926147,59.9774713 C95.6672912,59.8441379 97.0215853,59.582069 98.3237912,59.1958621 C103.847409,57.6234483 107.812909,55.4027586 110.399203,52.4142529 C113.562997,48.8188506 113.445232,45.6464368 112.747703,43.5774713 C112.276644,42.0648276 111.225821,40.7751724 109.538615,39.6418391 C108.449291,38.9131034 107.57285,38.4142529 106.773409,38.0694253 C106.18685,37.8142529 105.190379,37.3958621 103.783997,36.8602299 C103.650379,36.8096552 103.519026,36.7590805 103.394468,36.7108046 C103.91535,36.4234483 104.558526,36.1062069 105.351174,35.7177011 L106.037379,35.382069 C106.599026,35.1062069 107.135762,34.9085057 107.663438,34.7682759 C107.898968,35.4165517 108.200174,35.8510345 108.286232,35.9682759 C109.221556,37.2487356 110.659644,37.982069 112.23135,37.982069 C113.221026,37.982069 114.183526,37.6947126 115.089409,37.1245977 C116.969115,35.9797701 118.323409,34.4188506 118.959791,32.6395402 C119.485203,31.165977 119.645997,29.6809195 119.426321,28.3337931 C119.118321,26.4395402 117.958791,25.0786207 115.981703,23.7590805 C114.330732,22.6556322 112.195115,22.3912644 109.450291,22.3912644 M109.450291,27.5268966 C111.289232,27.5268966 112.636732,27.2970115 113.492791,27.8694253 C114.378291,28.4602299 114.865203,28.7889655 114.958056,29.3544828 C115.048644,29.9177011 114.96485,30.4694253 114.704409,31.2027586 C114.439438,31.9383908 113.775879,32.6303448 112.711468,33.2809195 C112.552938,33.3797701 112.383085,33.4188506 112.23135,33.4188506 C112.111321,33.4188506 112.004879,33.3567816 111.92335,33.2464368 C111.773879,33.0395402 111.939203,32.9016092 112.398938,32.4487356 C112.858674,31.9935632 113.105526,31.4211494 113.130438,30.6395402 C113.15535,29.857931 112.668438,29.8257471 111.671968,29.8257471 L111.214497,29.8257471 C109.226085,29.8257471 106.84135,29.8763218 104.060291,31.2464368 C101.281497,32.6142529 99.2092912,33.4970115 97.8527324,35.6073563 C97.3092029,36.3889655 97.10085,37.2947126 97.2231441,38.0533333 C97.3477029,38.8142529 98.0701441,39.5154023 99.3927324,40.0464368 C99.9453206,40.274023 100.880644,40.6671264 102.194174,41.165977 C103.512232,41.6671264 104.445291,42.0602299 105.000144,42.2993103 C105.552732,42.5383908 106.234409,42.936092 107.038379,43.4763218 C107.844615,44.0165517 108.311144,44.5337931 108.440232,45.0073563 C108.906762,46.3062069 108.426644,47.7521839 106.99535,49.3797701 C104.963909,51.7268966 101.648379,53.4763218 97.0555559,54.782069 C96.02285,55.0878161 94.9561735,55.2947126 93.8600559,55.4004598 C93.7037912,55.4165517 93.5543206,55.4234483 93.4116441,55.4234483 C92.5419971,55.4234483 91.8852324,55.1475862 91.4390853,54.5912644 C91.2579088,54.4349425 91.1356147,54.1705747 91.0767324,53.8027586 C91.01785,53.4326437 91.3235853,52.7154023 92.0075265,51.8809195 C92.6076735,51.1521839 93.7853206,50.3981609 95.36835,49.6464368 C95.4294971,49.6211494 95.4883794,49.6096552 95.5427324,49.6096552 C95.6219971,49.6096552 95.6944676,49.6326437 95.7601441,49.6763218 C95.8779088,49.7544828 95.9209382,49.8625287 95.8914971,49.9958621 C95.8620559,50.1291954 95.6152029,50.3062069 95.1599971,50.52 C94.7070559,50.736092 94.2586441,51.2533333 93.7966441,51.903908 C93.2916147,52.6142529 93.1851735,53.1521839 93.6313206,53.5062069 C94.0253794,53.8211494 94.4375559,53.9774713 94.8633206,53.9774713 C94.9154088,53.9774713 94.9697618,53.9751724 95.0241147,53.9705747 C95.5064971,53.9268966 95.9934088,53.8165517 96.48485,53.6441379 C98.5842324,52.8924138 100.531879,51.6234483 102.327791,49.8326437 C104.121438,48.0418391 104.875585,46.2993103 104.594762,44.5613793 C104.438497,43.6073563 103.018526,42.611954 100.337115,41.6326437 C99.0756735,41.182069 98.3668206,40.9268966 98.1992324,40.8487356 C96.6954676,40.1636782 95.6989971,39.4510345 95.2166147,38.6993103 C94.6708206,39.7981609 93.7672029,41.3912644 92.5057618,43.4947126 C92.4853794,43.52 92.4627324,43.5222989 92.44235,43.5452874 C91.3598206,45.3291954 90.0077912,47.0004598 88.3636147,48.5705747 C84.3732029,52.3935632 80.2559676,54.6855172 76.0164382,55.4234483 C74.9339088,55.6096552 73.9374382,55.7062069 73.0224971,55.7062069 C70.8642324,55.7062069 69.1702324,55.1751724 67.9337029,54.0763218 C67.26335,53.4533333 66.8443794,52.6211494 66.6745265,51.5774713 C66.5794088,50.9935632 66.5997912,50.2993103 66.6926441,49.5452874 C66.4027618,49.9590805 66.10835,50.3751724 65.7754382,50.828046 C64.1199382,53.0717241 62.3964971,54.9751724 60.8021441,56.5521839 C59.2100559,58.1268966 57.3711147,59.2970115 55.2943794,59.8533333 C54.7780265,59.9912644 54.3047029,60.0602299 53.8766735,60.0602299 C52.2166441,60.0602299 51.2179088,59.0142529 50.8714088,56.8901149 C50.43885,54.2211494 52.0581147,50.2832184 55.7858206,45.2625287 C56.0847618,44.8694253 56.2931147,44.5682759 56.4154088,44.3567816 C56.5807324,44.0441379 56.6645265,43.8878161 56.82985,43.5751724 C57.3892324,42.5774713 57.6292912,41.9797701 57.5454971,41.7728736 C57.4186735,41.5590805 57.3529971,41.4533333 57.2261735,41.2418391 C57.0019676,40.8694253 56.40635,40.6786207 55.4393206,40.6786207 C55.1811441,40.6786207 54.8957912,40.6924138 54.5832618,40.72 C53.1066735,40.8510345 51.9267618,41.0441379 51.0367324,41.2878161 C47.4924676,48.0165517 45.47235,51.9728736 44.9152324,52.965977 C44.3852912,53.9108046 43.9889676,54.3843678 43.7239971,54.3843678 C43.7104088,54.3843678 43.6968206,54.382069 43.6832324,54.3797701 C43.4182618,54.3268966 43.2733206,54.2165517 43.2461441,54.0418391 C43.2167029,53.8671264 43.3208794,53.5613793 43.5564088,53.12 C45.7214676,49.4188506 47.5037912,45.6855172 48.8943206,41.8855172 C48.7154088,41.9085057 48.5478206,41.92 48.3938206,41.92 C48.0201441,41.92 47.7166735,41.8510345 47.4766147,41.7131034 C47.1346441,41.5154023 47.0327324,41.0441379 47.1686147,40.3016092 C47.3044971,39.5567816 47.9069088,38.4372414 48.9803794,36.9567816 C50.05385,35.4763218 51.0276735,34.4211494 51.9063794,33.7797701 C52.7805559,33.1429885 53.3376735,32.7498851 53.5732029,32.5981609 C53.8042029,32.4510345 54.0714382,32.3383908 54.3703794,32.2625287 C54.4156735,32.2510345 54.4564382,32.2441379 54.4949382,32.2441379 C54.9501441,32.2441379 54.8346441,33.0809195 54.1552324,34.7567816 C53.2584088,36.6671264 52.8099971,37.628046 51.9154382,39.5521839 C54.1620265,39.0878161 56.0847618,38.6717241 57.67685,38.2878161 C58.71635,38.0096552 59.2394971,37.874023 60.2812618,37.6073563 C60.8293206,37.4832184 61.2890559,37.4211494 61.6627324,37.4211494 C61.8688206,37.4211494 62.0499971,37.4395402 62.2039971,37.4763218 C62.6342912,37.5843678 62.7905559,37.8993103 62.6705265,38.4211494 C62.45085,39.3222989 61.7555853,40.6234483 60.5847324,42.3337931 C58.0867618,46.0671264 56.3814382,49.8763218 55.4529088,53.6970115 C55.2422912,54.6142529 55.1856735,55.3751724 55.2853206,55.982069 C55.4529088,57.0188506 55.9035853,57.5337931 56.63735,57.5337931 C56.7958794,57.5337931 56.9679971,57.5108046 57.1514382,57.4625287 C57.5002029,57.3728736 58.1162029,56.965977 59.0084971,56.2464368 C59.9007912,55.5268966 61.3411441,53.9889655 63.3476735,51.6648276 C65.3519382,49.3452874 66.9213794,47.1912644 68.0446735,45.1728736 C68.1216735,45.0510345 68.2167912,44.9705747 68.3232324,44.92 C69.5212618,42.9131034 71.3624676,40.765977 73.8876147,38.5177011 C77.6039971,35.2050575 80.6930559,33.4464368 83.1298794,33.1337931 C83.4899676,33.0878161 83.8296735,33.0648276 84.1489971,33.0648276 C86.2619676,33.0671264 87.4803794,34.0694253 87.7974382,36.0303448 C87.9899382,37.2027586 87.7634676,38.2004598 87.1202912,39.0234483 C86.1102324,40.7774713 84.2780853,42.4211494 81.6329088,44.0165517 C78.9854676,45.6142529 76.6867912,46.674023 74.7459382,47.1406897 C74.5511735,47.1866667 74.3813206,47.2073563 74.23185,47.2073563 C73.8491147,47.2073563 73.6181147,47.0625287 73.5252618,46.8165517 C73.4663794,46.6625287 73.4935559,46.5314943 73.6611441,46.457931 C73.8287324,46.3843678 73.9646147,46.336092 74.0687912,46.3177011 C75.2147324,46.0303448 76.6256441,45.2993103 78.3083206,44.1452874 C81.4426735,42.0533333 83.6711441,40.1314943 84.9801441,38.2855172 C85.5100853,37.4234483 85.7229676,36.6326437 85.6052029,35.9177011 C85.5032912,35.2901149 85.1318794,34.9728736 84.4954971,34.9728736 C84.4049088,34.9728736 84.3097912,34.9797701 84.2101441,34.9935632 C83.54885,35.074023 82.6973206,35.4257471 81.66235,36.0556322 C79.4316147,37.336092 77.1940853,39.3728736 74.9520265,42.182069 C72.7099676,44.9958621 71.3737912,47.6372414 70.9389676,50.0487356 C70.7962912,50.7912644 70.7827029,51.4970115 70.8936735,52.1705747 C71.0023794,52.8441379 71.4326735,53.4211494 72.1868206,53.903908 C72.6873206,54.2257471 73.3237029,54.3866667 74.0959676,54.3866667 C74.4854971,54.3866667 74.9067324,54.3452874 75.3619382,54.2648276 C76.8747618,54.0004598 78.5597029,53.3613793 80.4212912,52.365977 C85.2156735,49.8165517 88.8550559,46.7728736 91.3281147,43.0855172 C91.3394382,43.057931 91.3281147,43.0418391 91.3417029,43.0142529 C93.0334382,40.3728736 94.3129971,38.0395402 94.4737912,36.52 C94.6957324,34.4441379 96.1315559,32.3085057 99.5467324,30.1912644 C102.957379,28.0763218 106.200438,27.5268966 109.257791,27.5268966 L109.108321,27.5268966" id="Fill-6" fill="#8F5F68"></path>
                    <path d="M135.020406,9.14114943 C134.186994,9.14114943 133.2947,9.2491954 132.368435,9.46068966 C125.841553,10.9388506 120.333788,17.4170115 115.562053,29.2491954 C115.288024,29.3250575 115.020788,29.423908 114.764876,29.5457471 C112.647376,30.5434483 111.517288,32.6928736 111.823024,35.0101149 C111.628259,35.2537931 111.413112,35.5181609 111.175318,35.8101149 C110.344171,36.8262069 109.227671,38.2124138 108.629788,39.0422989 C107.239259,40.9848276 107.182641,42.8308046 107.379671,44.0377011 C107.710318,46.0698851 108.917406,47.3388506 110.273965,47.9296552 C109.920671,49.3365517 109.777994,49.8629885 109.723641,50.0583908 C109.1552,51.5549425 109.311465,53.2331034 110.162994,54.5733333 C110.815229,55.6009195 112.135553,56.8308046 114.701465,56.84 C115.899494,56.84 117.115641,56.4744828 119.726847,55.3296552 C119.871788,55.2652874 120.014465,55.194023 120.152612,55.1158621 C121.110582,54.5664368 121.660906,54.0997701 125.476935,48.9848276 C125.499582,49.1756322 125.524494,49.3595402 125.553935,49.5388506 C125.723788,50.5825287 126.040847,51.5434483 126.496053,52.3963218 C128.156082,55.4422989 130.932612,57.2721839 134.3342,57.5894253 C134.762229,57.6308046 135.192524,57.6491954 135.620553,57.6491954 C138.249876,57.6491954 140.8407,56.8974713 143.320553,55.4147126 C144.638612,54.64 146.2307,53.3986207 148.157965,51.6354023 C150.191671,49.7733333 151.527847,48.2055172 152.349935,46.7135632 C152.956876,45.6790805 153.185612,44.485977 152.997641,43.3135632 C152.825524,42.2698851 152.245759,40.8055172 150.449847,39.7250575 C149.643612,39.24 148.735465,38.9825287 147.820524,38.9825287 C146.642876,38.9825287 145.528641,39.3894253 144.595582,40.1595402 C144.335141,40.3756322 144.099612,40.6193103 143.893524,40.8882759 C143.010288,42.0308046 141.699024,43.2491954 139.998229,44.5112644 C139.4162,44.9411494 138.913435,45.2974713 138.480876,45.5917241 C138.727729,44.6216092 139.178406,43.577931 139.828376,42.4606897 C139.866876,42.394023 139.903112,42.3273563 139.939347,42.2583908 C140.317553,41.5250575 140.722935,40.731954 141.157759,39.8813793 C142.068171,38.0836782 142.285582,36.0216092 141.787347,33.9135632 C141.357053,32.0905747 140.269994,30.6262069 138.7617,29.7250575 C141.819053,27.1963218 146.475288,22.4721839 145.528641,16.6491954 C145.331612,15.44 144.751847,14.2629885 143.762171,13.0514943 C142.117994,10.9365517 139.572465,9.64689655 136.195788,9.21471264 C135.819847,9.16643678 135.428053,9.14114943 135.020406,9.14114943 M122.858935,33.4147126 C125.861935,31.7664368 128.907965,29.5917241 131.992494,26.9112644 C135.077024,24.2331034 137.199053,21.7503448 138.3767,19.3641379 C138.859082,18.4124138 139.042524,17.5802299 138.924759,16.8629885 C138.809259,16.148046 138.388024,15.7365517 137.661053,15.6377011 C137.561406,15.623908 137.459494,15.6170115 137.353053,15.6170115 C136.684965,15.6170115 135.885524,15.8882759 134.956994,16.4354023 C130.024465,19.4032184 125.981965,25.102069 122.858935,33.4147126 M135.020406,13.7388506 C135.233288,13.7388506 135.434847,13.7503448 135.627347,13.7756322 C137.835435,14.0583908 139.370906,14.7963218 140.238288,15.9411494 C140.720671,16.5227586 140.9947,17.0078161 141.058112,17.3986207 C141.538229,20.3526437 139.298435,23.6468966 134.302494,27.4101149 C129.902171,30.7250575 125.676229,33.6905747 121.812641,36.2698851 C120.834288,38.9388506 119.908024,42.2468966 119.031582,46.2009195 C120.553465,44.3411494 122.505641,42.2078161 124.888112,39.8514943 C129.449229,35.4308046 132.825906,33.3365517 135.052112,33.3365517 C135.176671,33.3365517 135.298965,33.3411494 135.416729,33.3549425 C136.521906,33.4790805 137.162818,34.056092 137.382494,34.9871264 C137.618024,35.9802299 137.561406,36.9227586 137.133376,37.7687356 C136.703082,38.6124138 136.299965,39.3986207 135.926288,40.1250575 C134.107729,43.2537931 133.412465,46.1733333 133.842759,48.8216092 C133.983171,49.6905747 134.288906,50.3365517 134.7577,50.7664368 C135.264994,51.2377011 135.844759,51.4721839 136.501524,51.4721839 C136.904641,51.4721839 137.339465,51.3848276 137.801465,51.2055172 C139.010818,50.7411494 140.634612,49.7342529 142.668318,48.223908 C144.702024,46.7158621 146.294112,45.2285057 147.455906,43.7250575 C147.573671,43.6285057 147.6937,43.5802299 147.820524,43.5802299 C147.9247,43.5802299 148.031141,43.6147126 148.139847,43.6790805 C148.382171,43.823908 148.508994,43.9526437 148.527112,44.0606897 C148.545229,44.1687356 148.513524,44.2790805 148.436524,44.394023 C147.881671,45.44 146.778759,46.7066667 145.125524,48.2216092 C143.467759,49.7365517 142.097612,50.8216092 141.021876,51.4537931 C139.241818,52.5181609 137.443641,53.0514943 135.620553,53.0514943 C135.330671,53.0514943 135.040788,53.0377011 134.748641,53.0124138 C132.830435,52.8331034 131.405935,51.9089655 130.479671,50.2078161 C130.264524,49.8055172 130.112788,49.3342529 130.024465,48.7917241 C129.936141,48.2491954 129.902171,47.6698851 129.897641,47.0767816 C129.879524,45.302069 130.733318,42.5227586 132.5247,38.885977 C132.902906,38.1503448 133.065965,37.6216092 133.013876,37.2974713 C132.959524,36.9710345 132.730788,36.7871264 132.325406,36.7503448 C132.286906,36.7457471 132.248406,36.7434483 132.207641,36.7434483 C131.381024,36.7434483 129.997288,37.4698851 128.049641,38.9618391 C126.686288,40.1066667 124.754494,42.3296552 122.249729,45.6951724 C119.744965,49.0629885 118.300082,50.8974713 117.930935,51.1089655 C116.227876,51.8537931 115.156671,52.2422989 114.719582,52.2422989 L114.717318,52.2422989 C114.287024,52.2422989 114.035641,52.1848276 113.9677,52.0767816 C113.897494,51.9687356 113.899759,51.8285057 113.972229,51.656092 C114.046965,51.4813793 114.298347,50.5250575 114.730906,48.7917241 C116.187112,43.0354023 117.192641,39.256092 117.756553,37.4124138 C116.372818,39.1917241 114.617671,41.2124138 112.495641,43.5135632 C112.3507,43.656092 112.230671,43.7273563 112.131024,43.7273563 C111.990612,43.7273563 111.895494,43.5825287 111.847935,43.2882759 C111.768671,42.7894253 111.913612,42.2767816 112.287288,41.7549425 C112.660965,41.2354023 113.451347,40.223908 114.6607,38.7457471 C115.870053,37.2675862 116.717053,36.1756322 117.208494,35.4537931 C116.714788,35.223908 116.424906,34.9135632 116.334318,34.5227586 C116.245994,34.1342529 116.3547,33.8652874 116.660435,33.7204598 C116.762347,33.6721839 116.8937,33.6491954 117.052229,33.6491954 C117.367024,33.6491954 117.792788,33.7411494 118.324994,33.9296552 C118.737171,33.3388506 119.085935,32.6836782 119.369024,31.9618391 C123.610818,21.0790805 128.280641,15.0974713 133.369435,13.9457471 C133.969582,13.8078161 134.519906,13.7388506 135.020406,13.7388506" id="Fill-8" fill="#8F5F68"></path>
                    <g id="Group-12" transform="translate(0.000000, 13.793103)">
                        <mask id="mask-4" fill="white">
                            <use xlink:href="#path-3"></use>
                        </mask>
                        <g id="Clip-11"></g>
                        <path d="M50.2261941,0.856781609 C49.0870471,0.856781609 48.0452824,1.28436782 47.2503706,1.98781609 C44.9675471,2.49126437 42.1457235,3.05908046 38.4248118,3.76252874 C33.1820176,4.75563218 28.5325765,6.09126437 24.2115176,7.84988506 C17.4015471,10.6177011 11.5880471,14.5694253 6.92954706,19.5924138 C6.60569412,19.9418391 6.33166471,20.2889655 6.06216471,20.6383908 C5.98063529,20.7418391 5.90137059,20.8475862 5.81531176,20.9510345 C5.67263529,21.1257471 5.54354706,21.3073563 5.42804706,21.4958621 C3.98316471,23.3303448 2.83948824,25.2544828 2.02192941,27.2222989 C-1.53818824,34.6751724 0.255458824,39.0475862 2.42278235,41.4154023 C2.54507647,41.5533333 2.67416471,41.6889655 2.81231176,41.8245977 C3.15428235,42.1510345 3.45548824,42.403908 3.77481176,42.6383908 C4.27304706,43.003908 4.79166471,43.3234483 5.35331176,43.6108046 C6.82763529,44.3671264 8.45595882,44.7533333 10.1816647,44.7533333 C11.0445176,44.7533333 11.9436059,44.6544828 12.8517529,44.4613793 C12.9151647,44.4475862 12.9785765,44.4337931 13.0419882,44.4177011 C13.5447529,44.2866667 14.0294,44.1050575 14.4823412,43.8774713 C15.3746353,43.4291954 16.1265176,42.7441379 16.7176059,41.8406897 C17.6053706,40.4843678 17.7910765,38.8567816 17.2249,37.3763218 C16.6564588,35.8866667 15.4131353,34.7993103 13.8142529,34.3924138 C13.3318706,34.2728736 12.7634294,34.1878161 11.9707824,34.1188506 C12.4418412,32.4016092 13.5832529,30.482069 15.3270765,28.4843678 C18.0560471,25.357931 21.4938706,22.6177011 25.5499588,20.3349425 C25.6518706,20.2774713 25.7515176,20.2154023 25.8489,20.1487356 C26.5215176,19.6981609 27.8305176,18.9602299 30.2492235,18.0016092 C31.9953118,17.3096552 35.1432529,16.2062069 40.2048706,14.8843678 C42.0687235,14.3970115 43.6902529,13.9855172 45.0671941,13.6337931 C45.2211941,13.5947126 45.3751941,13.5556322 45.5224,13.5188506 C45.5631647,14.0636782 45.6265765,14.6154023 45.7194294,15.174023 C46.3309,18.9395402 48.0656647,20.4958621 49.4109,21.1395402 C50.3462235,21.5855172 51.2362529,21.8016092 52.1353412,21.8016092 C53.0955765,21.8016092 54.0354294,21.5464368 54.8575176,21.0636782 C56.3159882,20.1993103 57.2331941,18.7763218 57.3826647,17.1510345 C57.5344,15.5027586 56.8572529,13.8866667 55.5233412,12.7142529 C55.2832824,12.5050575 55.0432235,12.3303448 54.8167529,12.1832184 C54.7782529,11.9096552 54.7556059,11.6429885 54.7556059,11.3832184 L54.7556059,10.7165517 C54.7624,10.6958621 54.7691941,10.6774713 54.7759882,10.6567816 C54.8688412,10.4521839 54.9888706,10.1832184 55.1315471,9.85218391 C55.1564588,9.79241379 55.1813706,9.73724138 55.2040176,9.68896552 C56.0872529,8.36482759 56.2208706,6.68206897 55.5912824,5.24758621 C55.5482529,4.87057471 55.4599294,4.49816092 55.3240471,4.13954023 C54.7782529,2.69586207 53.6730765,1.72114943 52.0311647,1.23609195 C51.4785765,0.992413793 50.8671059,0.856781609 50.2261941,0.856781609 M50.2261941,9.13724138 L50.2261941,11.3832184 C50.2261941,12.6521839 50.4956941,13.7464368 50.6361059,14.6131034 C50.7493412,15.3004598 52.1444,15.8291954 52.5588412,16.1901149 C52.9732824,16.5533333 52.9800765,16.8521839 52.5837529,17.0866667 C52.4388118,17.1717241 52.2893412,17.203908 52.1353412,17.203908 C51.8635765,17.203908 51.5872824,17.0958621 51.3381647,16.9786207 C50.9350471,16.7855172 50.4413412,15.9901149 50.1876941,14.4245977 C49.9340471,12.8682759 49.9453706,10.9395402 50.2261941,9.6337931 M51.4514,7.11425287 C51.3155176,7.29816092 51.1592529,7.59701149 50.9826059,8.00850575 C50.8036941,8.42229885 50.6746059,8.71195402 50.5908118,8.87977011 C50.4413412,9.28436782 50.3190471,9.70045977 50.2261941,10.1326437 L50.2261941,7.46827586 C50.8331353,7.29126437 51.2430471,7.17402299 51.4514,7.11425287 M50.2261941,6.8383908 L50.2261941,7.46827586 C49.7709882,7.6016092 49.2025471,7.76942529 48.5231353,7.97172414 C46.9378412,8.44758621 43.7672529,9.2062069 39.0770471,10.4314943 C34.3823118,11.6567816 30.9105176,12.803908 28.6027824,13.7188506 C26.2927824,14.6337931 24.5489588,15.511954 23.3531941,16.3142529 C18.7331941,18.9142529 14.9443412,21.9924138 11.9368118,25.436092 C8.93154706,28.8797701 7.37342941,32.203908 7.20810588,35.2889655 C7.15601765,35.6154023 7.16507647,35.974023 7.22848824,36.3671264 C7.2919,36.7556322 7.49798824,37.1602299 7.84901765,37.574023 C8.20004706,37.9901149 8.58957647,38.2590805 9.0244,38.3809195 C9.45922353,38.5073563 10.1069294,38.5947126 10.9697824,38.6521839 C11.8326353,38.7096552 12.4169294,38.7786207 12.7158706,38.8521839 C13.0125471,38.928046 13.0872824,39.0774713 12.9423412,39.2981609 C12.7974,39.5211494 12.6411353,39.6728736 12.4712824,39.757931 C12.3036941,39.8406897 12.1179882,39.911954 11.9209588,39.9625287 C11.3185471,40.0912644 10.7387824,40.1556322 10.1816647,40.1556322 C9.17160588,40.1556322 8.24081176,39.9395402 7.38928235,39.5050575 C7.01560588,39.3142529 6.70307647,39.1142529 6.42451765,38.9096552 C6.2524,38.7832184 6.0984,38.6498851 5.95345882,38.511954 C5.88551765,38.4475862 5.82437059,38.3809195 5.76775294,38.3142529 C3.63213529,36.0177011 4.63992941,32.2406897 6.15275294,29.1165517 C6.85481176,27.3878161 7.88978235,25.6613793 9.30295882,23.9487356 C9.31428235,23.9349425 9.32560588,23.8958621 9.32560588,23.8958621 C9.32334118,23.9004598 9.28937059,23.9050575 9.28257647,23.9096552 C9.60642941,23.5211494 9.86687059,23.1303448 10.2269588,22.7441379 C14.2490765,18.4062069 19.3469294,14.7809195 25.8964588,12.1165517 C29.4973412,10.6521839 33.7414,9.32574713 39.2536941,8.28206897 C44.2043412,7.34643678 47.6059294,7.05218391 50.2261941,6.4291954 M50.2261941,5.45448276 C50.2261941,5.57862069 51.1796353,5.67977011 51.0890471,5.8108046 C50.8104882,5.87977011 50.5228706,5.95103448 50.2261941,6.02 L50.2261941,5.45448276" id="Fill-10" fill="#8F5F68" mask="url(#mask-4)"></path>
                    </g>
                    <path d="M37.5461059,23.6754023 L37.5461059,23.6754023 C36.3163706,23.6754023 35.1794882,23.8616092 34.1671647,24.2294253 C31.3317529,25.2593103 28.7771647,27.6271264 26.3561941,31.4662069 C24.0348706,35.1489655 22.8934588,37.9535632 22.7621059,40.2937931 C22.7304,40.8914943 22.8119294,41.48 22.9976353,42.034023 C22.9070471,42.3489655 22.7734294,42.788046 22.5741353,43.3857471 C22.2978412,44.217931 22.0056941,45.0891954 21.6976941,45.9995402 C21.2538118,46.096092 20.8144588,46.2409195 20.3819,46.4363218 C19.2903118,46.9236782 18.1466353,47.771954 16.7832824,49.1098851 C16.0064882,49.8708046 13.6489294,52.1857471 14.1720765,55.4018391 C14.4914,57.3742529 15.6577235,58.9604598 17.3471941,59.7811494 C16.4730176,62.9627586 15.8570176,65.6294253 15.5037235,67.7535632 C15.4697529,67.9006897 15.4425765,68.0524138 15.4244588,68.2041379 L15.3882235,68.5052874 C15.0960765,70.5121839 15.0530471,71.9351724 15.2432824,73.1121839 C15.2614,73.2202299 15.2817824,73.325977 15.3066941,73.434023 C15.9996941,79.0386207 20.3207529,79.2041379 20.8212529,79.2041379 C23.8695471,79.2041379 25.9915765,76.7075862 27.8169294,73.9443678 C28.6933706,72.8593103 29.5698118,71.171954 30.7497235,68.3305747 L31.1777529,67.3167816 C31.9817235,65.9857471 32.7290765,64.4294253 32.4346647,62.6087356 C32.1334588,60.7627586 30.9784588,59.3328736 29.4271353,58.7328736 C29.7102235,57.8501149 30.0295471,56.8845977 30.3851059,55.8294253 C32.5864,54.6616092 34.5929294,53.6110345 36.3979,52.6662069 C41.0722529,50.2225287 44.4489294,48.4547126 46.5415176,47.0731034 C51.3223118,43.8777011 50.4821059,40.8156322 49.5581059,39.2731034 C49.0372235,38.4087356 48.0113118,37.3098851 46.0636647,36.971954 C45.7149,36.9121839 45.3887824,36.8868966 45.0604,36.8868966 C44.6006647,36.8868966 44.1318706,36.9397701 43.6676059,37.0432184 C43.3664,37.1121839 42.9111941,37.234023 41.6316353,37.6685057 C40.8797529,37.9236782 39.3080471,38.5926437 37.1044882,39.634023 C38.9049294,36.371954 40.1391941,35.1282759 40.7302824,34.6731034 C41.7131647,34.6708046 42.6801941,34.342069 43.4773706,33.7213793 C44.5893412,32.8547126 45.2415765,31.5144828 45.2461059,30.0891954 C45.2551647,27.342069 43.4479294,24.3328736 39.3941059,23.8018391 C38.7531941,23.7167816 38.1326647,23.6754023 37.5461059,23.6754023 M37.5461059,28.2731034 C37.9401647,28.2731034 38.3636647,28.3029885 38.8143412,28.3604598 C40.0825765,28.5282759 40.7212235,29.1029885 40.7166941,30.0754023 C40.5174,30.0225287 40.3294294,29.9949425 40.1527824,29.9949425 C39.9784,29.9949425 39.8153412,30.0202299 39.6613412,30.0731034 C36.1850176,31.2777011 32.1855471,37.6914943 27.7920176,49.5581609 C29.4112824,48.7328736 31.1052824,47.8248276 32.8717529,46.8432184 C38.7962235,43.7926437 42.2453706,42.3075862 43.0674588,42.0294253 C43.8872824,41.7512644 44.4149588,41.5857471 44.6504882,41.5328736 C44.7931647,41.5006897 44.9313118,41.4845977 45.0604,41.4845977 C45.1419294,41.4845977 45.2211941,41.4891954 45.2981941,41.5029885 C45.4906941,41.5351724 45.6446941,41.5926437 45.6877235,41.663908 C45.7986941,41.8501149 45.2438412,42.4363218 44.0729882,43.217931 C41.2375765,45.0914943 35.3334882,47.988046 26.6936353,52.6041379 C23.6634588,61.3765517 22.3227529,66.6524138 22.5854588,68.263908 C22.6601941,68.7282759 22.8345765,68.9604598 23.1040765,68.9604598 C23.2875176,68.9604598 23.5185176,68.8524138 23.7925471,68.6386207 C24.4696941,68.1075862 25.0268118,67.4041379 25.4639,66.5167816 C26.4875471,64.3834483 27.2281059,63.2317241 27.6742529,63.0386207 C27.7036941,63.0271264 27.7286059,63.0202299 27.7535176,63.0202299 C27.8599588,63.0202299 27.9279,63.1328736 27.9641353,63.3581609 C28.0094294,63.6317241 27.7376647,64.2409195 27.1511059,65.1857471 C26.9201059,65.7282759 26.8068706,65.9995402 26.5758706,66.5443678 C25.5499588,69.0156322 24.7618412,70.5581609 24.2024588,71.1581609 C22.5514882,73.6983908 21.4916059,74.6064368 20.8212529,74.6064368 C20.1554294,74.6064368 19.8723412,73.7121839 19.7749588,72.6271264 C19.7545765,72.5374713 19.7274,72.4524138 19.7138118,72.3627586 C19.6005765,71.6662069 19.6662529,70.5535632 19.8768706,69.1190805 C19.8995176,68.925977 19.9153706,68.7926437 19.9153706,68.7926437 L19.9244294,68.7972414 C20.4339882,65.5742529 21.6886353,60.6822989 23.7608412,54.0983908 C22.5990471,54.7581609 21.7158118,55.2363218 21.1043412,55.5144828 C20.7057529,55.696092 20.3388706,55.7857471 20.0014294,55.7857471 C19.8179882,55.7857471 19.6458706,55.7604598 19.4805471,55.7052874 C19.0117529,55.5535632 18.7286647,55.2041379 18.6403412,54.6524138 C18.5497529,54.1006897 18.9755176,53.3535632 19.9289588,52.4156322 C20.8824,51.4845977 21.6433412,50.896092 22.2072529,50.6432184 C22.4858118,50.5190805 22.7507824,50.4570115 23.0044294,50.4570115 C23.2671353,50.4570115 23.5185176,50.5236782 23.7540471,50.6593103 C24.1549,50.8868966 24.4198706,50.9995402 24.5489588,50.9995402 C24.5716059,50.9995402 24.5897235,50.9972414 24.6033118,50.9903448 C24.6916353,50.9512644 24.7369294,50.9328736 24.8252529,50.8937931 C25.5794,48.6937931 26.2588118,46.6845977 26.8657529,44.8570115 C27.4749588,43.0294253 27.7444588,41.9006897 27.6719882,41.463908 C27.6017824,41.0248276 27.4726941,40.7236782 27.2847235,40.5535632 C27.3662529,39.0983908 28.3219588,36.8777011 30.1699588,33.9466667 C32.0202235,31.0133333 33.8614294,29.2225287 35.6935765,28.5581609 C36.2167235,28.3696552 36.8349882,28.2731034 37.5461059,28.2731034" id="Fill-13" fill="#8F5F68"></path>
                    <path d="M61.0471853,0.72045977 L53.5555382,0.72045977 C51.0530382,0.72045977 49.0261265,2.77793103 49.0261265,5.31816092 L49.0261265,24.2009195 C49.0261265,26.7411494 51.0530382,28.7986207 53.5555382,28.7986207 L62.2361559,28.7986207 C63.6923618,28.7986207 65.0625088,28.594023 66.3080971,28.1871264 C67.63295,27.7526437 68.8083324,27.1227586 69.8025382,26.3135632 C70.8895971,25.423908 71.7388618,24.3618391 72.3344794,23.1457471 C72.9527441,21.8905747 73.2698029,20.5227586 73.2698029,19.0905747 C73.2698029,17.8744828 73.0569206,16.7181609 72.63795,15.656092 C72.3616559,14.9572414 72.0083618,14.3066667 71.5780676,13.7112644 C71.7479206,13.3296552 71.8860676,12.9342529 71.9925088,12.5273563 C72.2031265,11.7342529 72.3073029,10.8675862 72.3073029,9.95494253 C72.3073029,8.4445977 71.9336265,7.0308046 71.1930676,5.74804598 C70.5159206,4.57793103 69.5919206,3.58942529 68.44145,2.79862069 C67.4291265,2.10436782 66.2537441,1.57333333 64.9447441,1.21701149 C63.7399206,0.888275862 62.4286559,0.72045977 61.0471853,0.72045977 M56.6808324,22.8193103 L60.0575088,22.8193103 C60.9679206,22.8193103 61.7537735,22.731954 62.4241265,22.5549425 C63.08995,22.3802299 63.6425382,22.1342529 64.0796265,21.8170115 C64.51445,21.4997701 64.8383029,21.1181609 65.0466559,20.6721839 C65.2572735,20.223908 65.36145,19.7342529 65.36145,19.2009195 C65.36145,18.6032184 65.2685971,18.0491954 65.0806265,17.5342529 C64.8926559,17.0170115 64.5869206,16.5733333 64.1588912,16.1986207 C63.7308618,15.823908 63.1737441,15.5273563 62.4898029,15.3089655 C61.8035971,15.0928736 60.9633912,14.9848276 59.9646559,14.9848276 L56.6808324,14.9848276 L56.6808324,22.8193103 M56.6808324,13.8193103 L60.6599206,13.8193103 C61.2827147,13.8193103 61.8398324,13.7273563 62.3290088,13.548046 C62.8181853,13.3664368 63.2303618,13.1158621 63.5655382,12.794023 C63.89845,12.4744828 64.1520971,12.0974713 64.3264794,11.6629885 C64.5008618,11.2285057 64.5869206,10.7549425 64.5869206,10.24 C64.5869206,9.68827586 64.4827441,9.18712644 64.2789206,8.73425287 C64.0728324,8.28137931 63.7535088,7.89517241 63.3186853,7.57563218 C62.8815971,7.2537931 62.3290088,7.00781609 61.6609206,6.83770115 C60.9928324,6.66528736 60.1911265,6.57793103 59.2558029,6.57793103 L56.6808324,6.57793103 L56.6808324,13.8193103 M61.0471853,5.31816092 C62.0368618,5.31816092 62.9427441,5.4308046 63.7716265,5.6583908 C64.5982441,5.88367816 65.3093618,6.19862069 65.9027147,6.60551724 C66.4938029,7.01241379 66.9535382,7.49977011 67.2841853,8.06988506 C67.6125676,8.64 67.7778912,9.26758621 67.7778912,9.95494253 C67.7778912,10.4698851 67.7258029,10.9296552 67.6170971,11.3365517 C67.5106559,11.7434483 67.3272147,12.1204598 67.0690382,12.4698851 C66.8108618,12.8170115 66.4643618,13.148046 66.0295382,13.4583908 C65.59245,13.7710345 65.0443912,14.085977 64.3853618,14.4009195 L64.3853618,14.456092 C65.0443912,14.5641379 65.6422735,14.748046 66.1812735,15.0055172 C66.7202735,15.2629885 67.1777441,15.5894253 67.5582147,15.9871264 C67.9364206,16.3848276 68.2285676,16.8445977 68.4323912,17.3641379 C68.6384794,17.8836782 68.7403912,18.4583908 68.7403912,19.0905747 C68.7403912,19.8055172 68.5863912,20.4744828 68.2783912,21.0974713 C67.9726559,21.7227586 67.5355676,22.2629885 66.9693912,22.7250575 C66.4054794,23.1848276 65.7215382,23.548046 64.9198324,23.8101149 C64.1203912,24.0721839 63.2235676,24.2009195 62.2361559,24.2009195 L53.5555382,24.2009195 L53.5555382,5.31816092 L61.0471853,5.31816092" id="Fill-15" fill="#8F5F68"></path>
                    <path d="M77.4606412,4.74689655 C75.7462588,4.74689655 74.1337882,5.09402299 72.6707882,5.77908046 C71.2123176,6.46413793 69.9486118,7.42965517 68.9136412,8.65034483 C67.9284941,9.80896552 67.1607588,11.1813793 66.6353471,12.723908 C66.1325824,14.1974713 65.8789353,15.7928736 65.8789353,17.4664368 C65.8789353,19.0825287 66.1959941,20.6296552 66.8187882,22.0641379 C67.4144059,23.4457471 68.2500824,24.677931 69.2941118,25.723908 C70.3290824,26.7606897 71.5497588,27.5905747 72.9199059,28.1836782 C74.3308176,28.7997701 75.8527,29.1124138 77.4334647,29.1124138 C78.7311412,29.1124138 80.0197588,28.8641379 81.2676118,28.3721839 C82.3999647,27.9308046 83.4711706,27.3124138 84.4382,26.54 C85.3825824,25.7836782 86.2205235,24.8871264 86.9293765,23.8756322 C87.6903176,22.7882759 88.2519647,21.5951724 88.5962,20.3331034 C88.9268471,19.1193103 88.7479353,17.8710345 88.1727,16.8411494 C88.3040529,16.4135632 88.3742588,15.9583908 88.3742588,15.4848276 C88.3742588,14.0503448 88.0934353,12.6595402 87.5408471,11.3468966 C87.0041118,10.0664368 86.2341118,8.91241379 85.2580235,7.9308046 C84.2864647,6.95149425 83.1246706,6.17218391 81.8088765,5.60896552 C80.4659059,5.03655172 79.0051706,4.74689655 77.4606412,4.74689655 M80.2779353,14.3193103 C80.2779353,13.7698851 80.1805529,13.2549425 79.9903176,12.7813793 C79.8000824,12.3055172 79.5373765,11.8963218 79.2022,11.5468966 C78.8692882,11.1997701 78.4774941,10.9262069 78.0290824,10.7262069 C77.5784059,10.5285057 77.0937588,10.4296552 76.5796706,10.4296552 C76.1516412,10.4296552 75.7394647,10.5285057 75.3431412,10.7262069 C74.9468176,10.9262069 74.5957882,11.1974713 74.2877882,11.54 C73.9820529,11.8848276 73.7261412,12.294023 73.5268471,12.7675862 C73.3252882,13.2434483 73.2052588,13.756092 73.1577,14.3055172 L80.2779353,14.3193103 M77.4606412,9.3445977 C78.4050235,9.3445977 79.2678765,9.51241379 80.0514647,9.84574713 C80.8327882,10.1813793 81.5076706,10.6296552 82.0670529,11.1951724 C82.6287,11.7606897 83.0657882,12.4135632 83.3760529,13.1537931 C83.6885824,13.8963218 83.8448471,14.6710345 83.8448471,15.4848276 L73.1463765,15.4848276 C73.1463765,16.4618391 73.2709353,17.3675862 73.5200529,18.2043678 C73.7691706,19.0388506 74.1156706,19.7606897 74.5618176,20.3652874 C75.0057,20.9721839 75.5424353,21.4457471 76.1652294,21.7905747 C76.7880235,22.1331034 77.4697,22.3055172 78.2079941,22.3055172 C78.8307882,22.3055172 79.4264059,22.2043678 79.9971118,21.9997701 C80.5678176,21.7974713 81.0841706,21.5308046 81.5461706,21.1997701 C82.0104353,20.8710345 82.4022294,20.4917241 82.7283471,20.0618391 C83.0544647,19.631954 83.2832,19.1905747 83.4168176,18.74 L84.2321118,19.1055172 C84.0260235,19.8549425 83.6953765,20.5583908 83.2356412,21.2135632 C82.7781706,21.8687356 82.2437,22.4411494 81.6344941,22.9285057 C81.0230235,23.4158621 80.3549353,23.802069 79.6302294,24.0871264 C78.9055235,24.3721839 78.1740235,24.5147126 77.4334647,24.5147126 C76.4619059,24.5147126 75.5537588,24.3285057 74.7022294,23.9583908 C73.8507,23.5882759 73.1078765,23.0848276 72.4714941,22.448046 C71.8351118,21.8089655 71.3323471,21.0641379 70.9632,20.2089655 C70.5917882,19.356092 70.4083471,18.4411494 70.4083471,17.4664368 C70.4083471,16.2986207 70.5782,15.2204598 70.9156412,14.2250575 C71.2553471,13.231954 71.7309353,12.3721839 72.3446706,11.6503448 C72.9584059,10.9262069 73.7012294,10.3606897 74.5686118,9.9537931 C75.4382588,9.54689655 76.4007588,9.3445977 77.4606412,9.3445977" id="Fill-17" fill="#8F5F68"></path>
                    <path d="M91.3906206,4.74689655 C90.1948559,4.74689655 89.0511794,4.92850575 87.9912971,5.28712644 C86.85215,5.67333333 85.8443559,6.23195402 84.9860324,6.9537931 C84.0665618,7.71931034 83.3305324,8.65724138 82.8028559,9.73310345 C82.2457382,10.8618391 81.9603853,12.1032184 81.9603853,13.4112644 C81.9603853,14.7331034 82.2208265,15.9514943 82.7394441,17.0365517 C82.9319441,17.4388506 83.1516206,17.8204598 83.3962088,18.1836782 L83.1516206,18.4112644 C81.4100618,20.0135632 81.1654735,22.7055172 82.5922382,24.6043678 C83.2580618,25.4894253 83.9782382,26.2411494 84.7391794,26.8365517 C85.4910618,27.4273563 86.2791794,27.9009195 87.08315,28.2503448 C87.8644735,28.5882759 88.6797676,28.8273563 89.5018559,28.956092 C90.1835324,29.0618391 90.8448265,29.1124138 91.4834735,29.1124138 C92.8672088,29.1124138 94.1467676,28.923908 95.2859147,28.5514943 C96.5337676,28.1445977 97.63215,27.5377011 98.5448265,26.7491954 C99.5345029,25.8917241 100.28865,24.8572414 100.793679,23.6664368 C101.264738,22.5445977 101.502532,21.356092 101.502532,20.1216092 C101.502532,18.7537931 101.199062,17.4894253 100.603444,16.3583908 C100.367915,15.9078161 100.091621,15.477931 99.7790912,15.0733333 C101.183209,13.4503448 101.294179,11.0135632 99.9738559,9.25494253 C99.3555912,8.43195402 98.74865,7.7583908 98.1190618,7.19977011 C97.4170029,6.57678161 96.6787088,6.07333333 95.9200324,5.70091954 C95.1273853,5.31011494 94.2939735,5.04344828 93.4401794,4.90551724 C92.7856794,4.79977011 92.0972088,4.74689655 91.3906206,4.74689655 M91.3906206,9.3445977 C91.8616794,9.3445977 92.3055618,9.37908046 92.7267971,9.44574713 C93.1435029,9.51471264 93.55115,9.64574713 93.9474735,9.83885057 C94.3437971,10.0342529 94.7401206,10.3078161 95.1364441,10.6595402 C95.5327676,11.0112644 95.9449441,11.4733333 96.3729735,12.0411494 L95.3289441,12.9905747 C94.7854147,12.0871264 94.1784735,11.4135632 93.5058559,10.9721839 C92.8355029,10.5285057 92.1153265,10.3078161 91.3498559,10.3078161 C90.9490029,10.3078161 90.5798559,10.3583908 90.24015,10.4641379 C89.9027088,10.5675862 89.6128265,10.7055172 89.3750324,10.8825287 C89.1327088,11.0595402 88.9470029,11.2664368 88.8133853,11.5009195 C88.6797676,11.7354023 88.6118265,11.9836782 88.6118265,12.2457471 C88.6118265,12.6802299 88.7318559,13.0595402 88.9719147,13.3836782 C89.2119735,13.7101149 89.5290324,14.0043678 89.9208265,14.2664368 C90.3126206,14.5285057 90.7587676,14.7698851 91.2547382,14.9905747 C91.7552382,15.2135632 92.2670618,15.4388506 92.7924735,15.6687356 C93.3178853,15.8986207 93.8297088,16.1445977 94.3279441,16.4066667 C94.8261794,16.6687356 95.2723265,16.9744828 95.6641206,17.3216092 C96.0559147,17.6710345 96.3729735,18.0733333 96.6107676,18.5285057 C96.8530912,18.985977 96.9731206,19.5170115 96.9731206,20.1216092 C96.9731206,20.7377011 96.8576206,21.3124138 96.6334147,21.8503448 C96.4046794,22.3882759 96.0649735,22.8549425 95.6120324,23.2457471 C95.1568265,23.6388506 94.5838559,23.9491954 93.8931206,24.1744828 C93.20465,24.402069 92.4006794,24.5147126 91.4834735,24.5147126 C91.0645029,24.5147126 90.6364735,24.4802299 90.1948559,24.4135632 C89.7555029,24.3445977 89.3093559,24.2158621 88.8586794,24.0204598 C88.4102676,23.8250575 87.9595912,23.5514943 87.5111794,23.1997701 C87.0605029,22.848046 86.62115,22.385977 86.1953853,21.8158621 L87.3571794,20.7445977 C87.7036794,21.2434483 88.0365912,21.6641379 88.3581794,22.0135632 C88.6797676,22.3606897 89.0013559,22.6457471 89.3274735,22.8664368 C89.6513265,23.0894253 89.9910324,23.2526437 90.3420618,23.356092 C90.6930912,23.4595402 91.0735618,23.5101149 91.4834735,23.5101149 C91.8752676,23.5101149 92.2353559,23.4503448 92.5660029,23.3285057 C92.8943853,23.2066667 93.1774735,23.0457471 93.4130029,22.848046 C93.6485324,22.648046 93.8342382,22.4181609 93.9678559,22.156092 C94.1014735,21.894023 94.1694147,21.6273563 94.1694147,21.356092 C94.1694147,20.9124138 94.0584441,20.5262069 93.8410324,20.1974713 C93.6213559,19.8664368 93.3314735,19.5675862 92.97365,19.3009195 C92.6112971,19.0342529 92.2013853,18.7928736 91.7371206,18.5767816 C91.2728559,18.3583908 90.8040618,18.1354023 90.3284735,17.9055172 C89.8528853,17.6756322 89.3818265,17.4273563 88.9175618,17.1606897 C88.4555618,16.894023 88.04565,16.585977 87.6832971,16.2388506 C87.3232088,15.8894253 87.0333265,15.4894253 86.8159147,15.031954 C86.5985029,14.5744828 86.4897971,14.0342529 86.4897971,13.4112644 C86.4897971,12.8227586 86.6098265,12.2825287 86.8566794,11.7836782 C87.1012676,11.2871264 87.4387088,10.8595402 87.8712676,10.4963218 C88.3015618,10.1354023 88.8201794,9.85264368 89.4203265,9.65034483 C90.0204735,9.44574713 90.6772382,9.3445977 91.3906206,9.3445977" id="Fill-19" fill="#8F5F68"></path>
                    <path d="M103.663288,0.0698850575 L102.847994,0.0698850575 C100.682935,0.0698850575 98.8190824,1.6262069 98.4046412,3.78252874 C98.2846118,4.39632184 98.1509941,4.97333333 98.0015235,5.49747126 C97.9947294,5.51816092 97.9879353,5.54114943 97.9834059,5.55954023 C95.6462294,5.74344828 93.8050235,7.72505747 93.8050235,10.1434483 L93.8050235,10.8629885 C93.8050235,12.6537931 94.8150824,14.2078161 96.2894059,14.9664368 L96.2894059,21.1250575 C96.2894059,22.0422989 96.4003765,22.9158621 96.6177882,23.7250575 C96.8850235,24.7250575 97.3334353,25.6422989 97.9471706,26.4308046 C98.6220529,27.2997701 99.4803765,27.9848276 100.494965,28.4537931 C101.448406,28.8928736 102.496965,29.1135632 103.622524,29.1135632 C105.386729,29.1135632 106.962965,28.6928736 108.310465,27.8629885 C109.587759,27.0767816 110.629524,25.9986207 111.397259,24.6606897 C112.597553,22.5710345 111.997406,19.8951724 110.024847,18.5388506 L109.315994,18.0514943 C108.960435,17.8078161 108.582229,17.6216092 108.1927,17.4905747 L108.1927,15.2652874 C110.054288,14.6951724 111.410847,12.9388506 111.410847,10.8629885 L111.410847,9.64229885 C111.410847,7.56643678 110.054288,5.81011494 108.1927,5.24 L108.1927,4.66758621 C108.1927,2.12735632 106.165788,0.0698850575 103.663288,0.0698850575 M103.663288,4.66758621 L103.663288,9.64229885 L106.881435,9.64229885 L106.881435,10.8629885 L103.663288,10.8629885 L103.663288,21.1250575 C103.663288,21.3434483 103.704053,21.5457471 103.783318,21.7342529 C103.862582,21.9250575 103.971288,22.0905747 104.109435,22.2308046 C104.249847,22.3710345 104.412906,22.4813793 104.605406,22.5618391 C104.797906,22.6422989 104.999465,22.6836782 105.212347,22.6836782 C105.533935,22.6836782 105.823818,22.6055172 106.086524,22.4468966 C106.349229,22.2882759 106.580229,22.0928736 106.774994,21.8583908 L107.483847,22.3457471 C107.098847,23.0147126 106.591553,23.5434483 105.9597,23.931954 C105.327847,24.3204598 104.548788,24.5158621 103.622524,24.5158621 C103.142406,24.5158621 102.7257,24.4331034 102.374671,24.2721839 C102.021376,24.1066667 101.731494,23.8767816 101.500494,23.5802299 C101.267229,23.2813793 101.097376,22.9250575 100.986406,22.5089655 C100.873171,22.0928736 100.818818,21.6308046 100.818818,21.1250575 L100.818818,10.8629885 L98.3344353,10.8629885 L98.3344353,10.1434483 C99.1361412,10.1434483 99.7951706,9.99862069 100.311524,9.70436782 C100.827876,9.41011494 101.249112,9.01241379 101.579759,8.51126437 C101.908141,8.01011494 102.166318,7.42850575 102.354288,6.76873563 C102.539994,6.10896552 102.705318,5.40781609 102.847994,4.66758621 L103.663288,4.66758621" id="Fill-21" fill="#8F5F68"></path>
                </g>
                <path d="M113.129745,46.988694 C113.104747,47.7558748 112.857045,48.8773126 112.395727,49.3240826 C111.934409,49.7708526 111.768516,50.1792636 111.918501,50.3823408 C112.104846,50.6305464 112.429814,50.6779311 112.709332,50.5064436 C113.77968,49.8678784 114.443251,49.1932106 114.709133,48.4711581 C114.970471,47.751362 115.056826,47.1127968 114.963654,46.5599753 C114.870481,46.0048975 114.381893,45.4362811 113.493345,44.8541263 C112.604797,44.2742278 111.189028,43.9786376 109.243767,44.0012017 C106.175889,44.0350479 102.923939,45.0729984 99.4992791,47.1488994 C96.0723464,49.2270568 94.6315803,51.8535228 94.4088751,53.8910648 C94.2475275,55.3825545 92.9658365,57.6750712 91.2660052,60.2654346 C91.2523702,60.2925116 91.2637327,60.3105629 91.2523702,60.3376399 C88.7707982,63.9569281 85.1188879,66.942164 80.3080016,69.4445272 C78.4400052,70.4215545 76.7492639,71.0510941 75.2312327,71.3105817 C73.8631866,71.5452488 72.7996558,71.4324281 72.0451852,70.9563247 C71.2884421,70.4824777 70.8566668,69.9161178 70.7475867,69.2549884 C70.6362341,68.5938591 70.6521416,67.90114 70.7930367,67.1700618 C71.2293571,64.8053398 72.5701331,62.2104636 74.8199099,59.4508691 C77.0696866,56.6935311 79.3149184,54.6943482 81.5533326,53.4375255 C82.5918659,52.8192681 83.4463266,52.4740367 84.1098971,52.3950622 C84.9257252,52.29578 85.3938606,52.6003959 85.5097582,53.3021407 C85.6279283,54.0038855 85.4143131,54.7800919 84.8825477,55.6262472 C83.5690417,57.4381478 81.3328999,59.3245099 78.1877575,61.3778468 C76.4992887,62.5105667 75.0835201,63.2281064 73.9336342,63.5101581 C73.8290991,63.5282094 73.692749,63.5755941 73.5245839,63.6477994 C73.3564187,63.7200046 73.3291487,63.8486202 73.3882337,63.9998 C73.5177663,64.3337493 73.9131817,64.4804162 74.6131122,64.3179544 C76.5606462,63.8599023 78.8672355,62.8196954 81.5237901,61.2514876 C84.1780722,59.6855362 86.0165261,58.0722001 87.0300619,56.3505562 C87.6754524,55.5427599 87.9027026,54.5634762 87.7118124,53.412705 C87.3413946,51.1969063 85.7779134,50.2266483 83.0259138,50.5696232 C80.5807019,50.8764955 77.4810094,52.6026523 73.751834,55.854145 C71.2202671,58.060918 69.3704506,60.1684088 68.1682972,62.1382583 C68.0614896,62.1878995 67.9660445,62.2668739 67.8887795,62.3842075 C66.7616186,64.3675955 65.1867749,66.4818555 63.1756108,68.7585773 C61.1621742,71.0375556 59.7168631,72.549353 58.8214974,73.2556107 C57.9261317,73.9618683 57.3080112,74.3612536 56.9603184,74.4492537 C55.9126951,74.7132542 55.2923021,74.232638 55.0855045,72.996123 C54.9855144,72.4004297 55.042327,71.6535566 55.2536696,70.7532474 C56.1876678,67.0030872 57.8965892,63.264209 60.4031586,59.5997925 C61.578042,57.918764 62.2757001,56.64389 62.4961328,55.7593757 C62.6165754,55.2471697 62.4597727,54.9380409 62.0279974,54.8319895 C61.5939496,54.7281944 60.9531041,54.7688099 60.1009159,54.9606051 C59.0532926,55.2223491 58.5306172,55.3554775 57.4852664,55.6285036 C55.8876976,56.0053248 53.9583436,56.4137357 51.7040218,56.8695314 C52.60166,54.9809128 53.0516154,54.0377317 53.9537986,52.1626516 C54.6900892,50.3823408 54.7628092,49.5677753 54.1674138,49.7144423 C53.8674435,49.7866475 53.5992883,49.8994682 53.3674931,50.0438787 C53.131153,50.192802 52.5721175,50.5786489 51.6949318,51.2036756 C50.8132012,51.8332151 49.8360254,52.8689092 48.7588596,54.3220399 C47.6816937,55.7751706 47.0794807,56.8740442 46.9408581,57.6051224 C46.804508,58.3339442 46.9067706,58.796509 47.2499184,58.9905607 C47.5907936,59.1846123 48.063474,59.2387662 48.6725045,59.1597917 C47.2771884,62.8896442 45.4887295,66.5540608 43.3162178,70.1868875 C43.0798776,70.620119 42.9753425,70.9202221 43.0048851,71.0917095 C43.0321551,71.263197 43.1798677,71.3715049 43.4457504,71.4234024 C43.7093606,71.4752999 44.1206834,71.012735 44.6797189,70.0357077 C45.2387543,69.0609368 47.2658259,65.1776481 50.8245637,58.5731241 C51.7153844,58.3339442 52.8993578,58.1444054 54.3810289,58.0157898 C55.8627001,57.8871742 56.7489758,58.0654309 57.0330385,58.5279958 C57.1602986,58.7355859 57.2262012,58.8393809 57.3534613,59.0492274 C57.4375438,59.2523047 57.1966586,59.8389724 56.6353507,60.8182561 C56.4694581,61.1251284 56.3853755,61.2785646 56.2194829,61.5854369 C56.0967678,61.793027 55.8876976,62.0886172 55.5877274,62.474464 C51.8471895,67.4024725 50.2223507,71.2677098 50.658671,73.8874066 C51.0927189,76.5093598 52.5653,77.4593101 55.0945945,76.7959244 C57.1784786,76.2498722 59.0237501,75.1013574 60.6213188,73.5557137 C62.22116,72.0078137 63.9505339,70.1395028 65.6117327,67.9349862 C65.9457904,67.492729 66.2412157,67.0843181 66.5320959,66.6781635 C66.4389233,67.4182674 66.4184708,68.097448 66.5139159,68.6728336 C66.6843535,69.6972456 67.1047664,70.5140675 67.7796994,71.1255557 C69.5431608,72.6599173 72.2406204,73.0660719 75.8879857,72.445558 C80.142109,71.7235055 84.2735172,69.4738606 88.2776654,65.7214439 C89.9275016,64.1803131 91.2841852,62.5399001 92.370441,60.7889227 C92.3908936,60.7663586 92.4136186,60.7641022 92.4340711,60.7392816 C93.6998546,58.6746627 94.6065828,57.1109677 95.1542557,56.0324018 C95.6382986,56.7702492 96.6381994,57.4697376 98.1471405,58.142149 C98.3153057,58.218867 99.0265987,58.469329 100.292382,58.9115862 C102.983024,59.8705622 104.407883,60.8498459 104.564686,61.7862577 C104.846476,63.4921068 104.089733,65.2024687 102.289911,66.9602153 C100.487817,68.7179619 98.5334658,69.9635025 96.4268567,70.6990935 C95.9337238,70.8705809 95.4474084,70.9788888 94.9610931,71.0217607 C94.4770502,71.0646326 94.0089148,70.9134528 93.5635045,70.565965 C93.1158216,70.2184773 93.2249017,69.68822 93.7293971,68.9932444 C94.1929875,68.3524228 94.6429428,67.846986 95.0997157,67.6348831 C95.554216,67.4250366 95.8019187,67.2512927 95.8314612,67.1204207 C95.8610038,66.9895487 95.8178262,66.8834972 95.6996561,66.8067791 C95.5837585,66.7323175 95.4519534,66.718779 95.3065133,66.7751893 C93.7180346,67.5152932 92.5363337,68.255397 91.9341207,68.9706803 C91.2478252,69.7897586 90.9410374,70.4937598 91.0001225,70.8570425 C91.06148,71.2158123 91.1819226,71.4775563 91.3637228,71.6309925 C91.8863982,72.2673013 92.6954088,72.5313017 93.7930272,72.4252503 C94.892918,72.3214552 95.9632663,72.1183779 97.0017997,71.8182749 C101.608161,70.5366317 104.935103,68.8172441 106.973537,66.5157017 C108.409759,64.9181605 108.893801,63.4988761 108.425666,62.2240021 C108.293861,61.7591808 107.825726,61.2514876 107.016715,60.7212303 C106.209977,60.190973 105.525954,59.8006133 104.971463,59.5659463 C104.4147,59.3312792 103.47843,58.9454324 102.158106,58.4535341 C100.837783,57.9638922 99.8992394,57.5780454 99.344749,57.3546604 C98.0176079,56.8334288 97.2926799,56.1452225 97.1676923,55.3983494 C97.0449772,54.6537327 97.2540473,53.7647056 97.7994478,52.9975248 C99.1606763,50.9238802 101.240015,48.9314666 104.030648,47.5889002 C106.819007,46.2440774 109.211952,45.0662292 111.207208,45.0662292 L111.666254,45.0662292 C112.666154,45.0662292 113.154742,46.2215132 113.129745,46.988694" id="Fill-24" fill="#FFFFFF"></path>
                <path d="M135.316165,35.6749157 C136.400518,35.0455024 137.309092,34.7855274 138.041886,34.8835881 C138.772397,34.9816489 139.197007,35.3898553 139.315715,36.0990855 C139.43214,36.8105961 139.249513,37.636131 138.763266,38.5825313 C137.576185,40.9473921 135.437156,43.4103136 132.327917,46.0670761 C129.218678,48.7283996 126.145964,50.883456 123.12119,52.5185622 C126.269238,44.2723361 130.344122,38.6212996 135.316165,35.6749157 M148.604624,62.7009182 C148.36036,62.5572478 148.129792,62.5732112 147.915204,62.7465279 C146.744103,64.2379637 145.139261,65.7134361 143.089263,67.2094329 C141.039266,68.7077101 139.402463,69.7088421 138.18114,70.1694996 C136.962099,70.6301572 135.939383,70.4887672 135.115275,69.7316469 C134.642725,69.3051966 134.334541,68.6643809 134.193004,67.8023584 C133.759263,65.1752421 134.460097,62.2813094 136.293224,59.1752917 C136.669894,58.4546591 137.076241,57.6770144 137.509982,56.8400772 C137.941441,56.0008595 137.998512,55.0635811 137.761096,54.0784125 C137.539659,53.1570974 136.893613,52.5824157 135.779583,52.4592696 C133.546958,52.215258 130.019957,54.2722535 125.164339,58.9039142 C122.765066,61.2414092 120.797251,63.3576973 119.263177,65.2026079 C120.144356,61.2801774 121.080324,57.9985625 122.066514,55.3509219 C125.961053,52.7945006 130.220848,49.8503972 134.656422,46.5642214 C139.692385,42.8310709 141.950122,39.5608585 141.466158,36.630438 C141.402238,36.2450364 141.126014,35.761574 140.639767,35.1846119 C139.763153,34.0489314 138.217665,33.3168964 135.991888,33.036397 C135.336711,32.9542996 134.578805,33.0113117 133.715889,33.2051527 C128.584046,34.3476746 123.879096,40.2814911 119.603321,51.077297 C119.315682,51.7933686 118.966407,52.4433062 118.550928,53.0293903 C117.740517,52.748891 117.178937,52.6804765 116.873035,52.8218664 C116.56485,52.9655368 116.455274,53.2323533 116.544305,53.6200354 C116.635619,54.005437 116.927823,54.3133022 117.425484,54.5413505 C116.930106,55.2574221 116.076321,56.3406515 114.85728,57.807002 C113.638239,59.2756329 112.841525,60.2767649 112.464855,60.792154 C112.088185,61.3098237 111.9398,61.8183713 112.021983,62.3132361 C112.104165,62.8081009 112.321036,62.8833568 112.674877,62.5367234 C114.813906,60.2562406 116.583113,58.2494156 117.975651,56.4843219 C117.409504,58.3132692 116.39592,62.062383 114.928048,67.7749926 C114.492024,69.4921962 114.238628,70.4408771 114.163294,70.6141938 C114.08796,70.78523 114.08796,70.9243395 114.156446,71.0315222 C114.224931,71.1387048 114.48061,71.1957169 114.914351,71.1979974 C115.352658,71.1979974 116.432445,70.8125958 118.15143,70.0714389 C118.525817,69.8616344 119.982274,68.0418091 122.507104,64.7009017 C125.029651,61.3622748 126.976921,59.1593283 128.353478,58.0236478 C130.41489,56.4683585 131.850802,55.7522869 132.663496,55.8275428 C133.072125,55.866311 133.302693,56.0464692 133.357482,56.3702978 C133.409987,56.6918458 133.243339,57.2163569 132.864386,57.9461114 C131.058653,61.5538353 130.195737,64.3109391 130.214,66.0714719 C130.220848,66.6598365 130.255091,67.2345182 130.341839,67.7727121 C130.43087,68.3109061 130.586104,68.7784051 130.802974,69.1774896 C131.736659,70.8650469 133.172571,71.781801 135.106143,71.9596787 C137.242889,72.1558002 139.349958,71.6358501 141.429633,70.4135113 C142.513986,69.7863785 143.895109,68.7099906 145.563871,67.2071524 C147.232633,65.7043142 148.342097,64.4477681 148.903678,63.4101484 C148.981294,63.2961242 149.013254,63.1866611 148.994991,63.0794784 C148.976729,62.9722957 148.846606,62.8468691 148.604624,62.7009182" id="Fill-26" fill="#FFFFFF"></path>
                <path d="M22.286762,49.6401555 C23.4497584,48.8540813 25.1479974,47.9936793 27.3924923,47.0972394 C29.6391899,46.2007996 33.0136414,45.0791235 37.5797238,43.8763625 C42.1436035,42.6758539 45.227306,41.9325746 46.7691572,41.4663358 C48.3066032,41.0023493 49.2581457,40.7298136 49.6171768,40.626205 C49.4850181,40.8063939 49.3330356,41.0992009 49.1590267,41.5023736 C48.9850178,41.9077986 48.859467,42.1938485 48.7801718,42.3582709 C48.1876604,43.9461857 48.059907,45.7615891 48.3858984,47.7909667 C48.6347973,49.3225725 49.1149738,50.1018896 49.5070445,50.2910879 C49.8814941,50.4712769 50.328631,50.6266898 50.7162964,50.3969489 C51.1017593,50.1672081 51.0951513,49.8744011 50.6920674,49.518528 C50.291186,49.1649072 50.0334766,48.6468641 49.925547,47.973408 C49.788983,47.1242677 50.0466925,46.0521437 50.625988,44.8088402 L50.625988,39 C50.5400849,39.1238799 50.4519791,39.2207314 50.3660759,39.349116 C47.7096865,40.0113103 43.6656309,40.7500848 38.3043939,41.7704046 C32.9431568,42.7929767 28.5378675,44.0925892 25.0356625,45.5273435 C18.6656142,48.1378304 13.5708972,51.6898044 9.65900029,55.9400105 C9.30877979,56.3206595 8.98499103,56.7013086 8.67221549,57.0842101 C8.67441813,57.077453 8.67662078,57.0752006 8.67882342,57.0684435 C8.67882342,57.0684435 8.65018904,57.1067337 8.63917582,57.1202479 C7.26692821,58.7982571 6.24930638,60.4920329 5.56648654,62.1835564 C4.09732257,65.2445156 3.11053777,68.9451455 5.18763166,71.1952545 C5.24490042,71.260573 5.30216919,71.3258915 5.36604588,71.3889576 C5.50701514,71.5263517 5.65679497,71.6547363 5.82419597,71.7786162 C6.09512126,71.9790763 6.39908622,72.1750318 6.76252258,72.3619778 C8.04446177,73.024172 9.5114231,73.1660708 11.1700145,72.8101977 C11.3616446,72.7606458 11.5422615,72.6930749 11.7030545,72.6097375 C11.8682529,72.5264002 12.0202353,72.3799967 12.1634072,72.1592652 C12.3043765,71.9430385 12.2294866,71.7966351 11.9409401,71.7245595 C11.650191,71.6502316 11.0819087,71.5826607 10.2427011,71.5263517 C9.40569616,71.4700426 8.77353714,71.3844529 8.35062937,71.260573 C7.92992425,71.1411979 7.54886672,70.8776716 7.20965945,70.4722465 C6.86604688,70.0645691 6.66780886,69.6681535 6.60613481,69.2875044 C6.54446076,68.9023506 6.53565019,68.5509822 6.58410837,68.2311469 C6.74490143,65.2084778 8.26032094,61.9515632 11.185433,58.5775257 C14.1083425,55.2034883 17.793367,52.1875763 22.286762,49.6401555" id="Fill-28" fill="#FFFFFF"></path>
                <path d="M28.0213675,80.0150659 C27.5764267,80.1962599 26.83787,81.2921562 25.8169905,83.3180362 C25.3810839,84.1606975 24.8254725,84.8287139 24.1501562,85.3330009 C23.4725812,85.8372878 23.072812,85.7194025 22.9463314,84.974979 C22.6843357,83.4468368 24.0214169,78.4345303 27.0411425,70.1039721 C35.6598955,65.7225701 41.5480216,62.9719141 44.3757676,61.1927199 C45.543455,60.4504794 46.0968079,59.893799 45.9861373,59.7169711 C45.9432242,59.6492963 45.7896406,59.5947197 45.597661,59.5641569 C45.4011643,59.531411 45.1843403,59.5423263 44.9517062,59.5903536 C44.7168136,59.640564 44.1905637,59.7999274 43.3706981,60.0618947 C42.553091,60.326045 39.113269,61.738485 33.2048157,64.633223 C31.4431209,65.5675728 29.7537008,66.4276985 28.1388139,67.2136002 C32.520465,55.9446429 36.5091227,49.8517216 39.9760477,48.709981 C40.283215,48.6095602 40.6310368,48.6117433 41.0285474,48.7121641 C41.030806,47.7887296 40.3961442,47.2407814 39.1313377,47.0836011 C37.8687897,46.9264207 36.8298415,46.9919125 36.0190102,47.2713443 C34.1918165,47.9022487 32.3533299,49.6028527 30.5103261,52.3862546 C28.6673223,55.1718395 27.7142002,57.2784928 27.6328913,58.6603699 C27.8180951,58.8240995 27.9490929,59.1100804 28.019109,59.5270449 C28.0913836,59.9418263 27.8203536,61.013709 27.2150534,62.7492419 C26.6097531,64.4825918 25.9299196,66.3927696 25.18007,68.4819583 C25.0919853,68.5168873 25.0468136,68.5365348 24.9587289,68.5736468 C24.8593512,68.615125 24.5770284,68.5103381 24.1117602,68.2571031 C23.6487507,68.0082342 23.1337938,68.001685 22.569148,68.2418217 C22.0067608,68.4841414 21.2456183,69.0430048 20.2970134,69.9271442 C19.34615,70.8156498 18.9215363,71.5273274 19.0118797,72.0512619 C19.0999644,72.5730133 19.3822873,72.9070216 19.849814,73.0511035 C20.3150821,73.1951855 20.857142,73.1362429 21.469218,72.8699095 C22.0767769,72.6035762 22.9598829,72.1516827 24.118536,71.5229613 C22.0519325,77.7774291 20.8006775,82.4229815 20.2924963,85.483632 L20.2834619,85.4770829 C20.2834619,85.4770829 20.2676519,85.6058834 20.245066,85.7892605 C20.0350178,87.1514901 19.9695189,88.2080913 20.082448,88.8695586 C20.0959995,88.9546979 20.1231025,89.0354712 20.1434298,89.1184275 C20.3399265,91.1923348 21.2772385,92.5261846 24.5589597,87.725635 C25.1168297,87.1558562 25.9028166,85.6910228 26.9259547,83.3442329 C27.1563302,82.8268476 27.2692594,82.5692465 27.4996348,82.0540443 C28.0846079,81.1568065 28.3556378,80.5782955 28.3104662,80.3185113 C28.2652945,80.054361 28.170434,79.9539403 28.0213675,80.0150659" id="Fill-30" fill="#FFFFFF"></path>
                <path d="M57.0872483,42.6098125 L60.4250559,42.6098125 C61.3221477,42.6098125 62.1006711,42.5219138 62.7606264,42.3438033 C63.4183445,42.1656927 63.9642058,41.9181885 64.3959732,41.5989774 C64.8255034,41.2820794 65.1454139,40.8981008 65.3512304,40.4470416 C65.5592841,39.9982956 65.6621924,39.5032871 65.6621924,38.9666423 C65.6621924,38.3675432 65.5704698,37.8077672 65.3847875,37.2896275 C65.2013423,36.7714877 64.8970917,36.3227417 64.4742729,35.9457025 C64.0514541,35.5686633 63.5033557,35.2702703 62.8255034,35.0528366 C62.147651,34.8330898 61.3176734,34.724373 60.3333333,34.724373 L57.0872483,34.724373 L57.0872483,42.6098125 Z M57.0872483,33.5516192 L61.0178971,33.5516192 C61.6331096,33.5516192 62.1834452,33.4614074 62.6666667,33.2786706 C63.1498881,33.0982469 63.557047,32.8438033 63.8881432,32.522279 C64.2170022,32.1984417 64.4675615,31.8190894 64.639821,31.3819089 C64.8120805,30.9470416 64.8970917,30.468225 64.8970917,29.9500852 C64.8970917,29.3972486 64.7964206,28.8906745 64.5928412,28.4373022 C64.3914989,27.9816168 64.0738255,27.5930119 63.6442953,27.2714877 C63.212528,26.9476504 62.6666667,26.7001461 62.0089485,26.5266618 C61.3489933,26.3554906 60.5548098,26.2675919 59.6331096,26.2675919 L57.0872483,26.2675919 L57.0872483,33.5516192 Z M54,25 L61.4004474,25 C62.3780761,25 63.2751678,25.1133431 64.0917226,25.3400292 C64.9105145,25.5667154 65.6107383,25.8859265 66.196868,26.2953494 C66.7807606,26.7047723 67.2348993,27.1951546 67.5615213,27.7688093 C67.885906,28.3424641 68.0514541,28.9739469 68.0514541,29.665571 C68.0514541,30.1837107 67.9977629,30.6463355 67.8903803,31.0557585 C67.7852349,31.4651814 67.606264,31.8445337 67.3489933,32.1938154 C67.0939597,32.5454103 66.7516779,32.876187 66.3221477,33.1907719 C65.8903803,33.5053567 65.3489933,33.8199416 64.7002237,34.1391527 L64.7002237,34.1946676 C65.3489933,34.3033845 65.9418345,34.4861213 66.4720358,34.7451911 C67.0044743,35.004261 67.458613,35.3350377 67.8322148,35.7352082 C68.2058166,36.1353786 68.4944072,36.5956903 68.6957494,37.1184563 C68.8993289,37.6412223 69,38.2218164 69,38.8579255 C69,39.577307 68.8478747,40.2504261 68.5436242,40.8772827 C68.2416107,41.5041393 67.8098434,42.0500365 67.2527964,42.5149744 C66.6935123,42.9775992 66.0178971,43.3407597 65.2259508,43.6067689 C64.4362416,43.8681519 63.5503356,44 62.5749441,44 L54,44 L54,25 Z" id="Fill-32" fill="#FFFFFF"></path>
                <path d="M80.9954128,33.9189271 C80.9954128,33.3733899 80.8990826,32.8664949 80.706422,32.3982422 C80.5114679,31.9277163 80.2454128,31.5208365 79.9059633,31.1776027 C79.5688073,30.8343688 79.1720183,30.5638733 78.7178899,30.3661161 C78.2614679,30.1706319 77.7729358,30.0728898 77.25,30.0728898 C76.8165138,30.0728898 76.3990826,30.1706319 75.9977064,30.3661161 C75.5963303,30.5638733 75.2408257,30.8320958 74.9288991,31.1707835 C74.6192661,31.5117442 74.3600917,31.9140779 74.1582569,32.3846037 C73.956422,32.8528565 73.8325688,33.3597515 73.7866972,33.9052887 L80.9954128,33.9189271 Z M78.1146789,44 C77.1307339,44 76.2110092,43.8158812 75.3486239,43.4499167 C74.4885321,43.0839521 73.733945,42.5861494 73.0917431,41.9542355 C72.4449541,41.3245946 71.9357798,40.5881194 71.5619266,39.7425367 C71.1857798,38.8992272 71,37.9945446 71,37.0284892 C71,35.8760418 71.1720183,34.8076981 71.5137615,33.8257312 C71.8577982,32.8414911 72.3394495,31.9936354 72.9633028,31.2776178 C73.5825688,30.5638733 74.3348624,30.0046977 75.2133028,29.602364 C76.0940367,29.2000303 77.0688073,29 78.1422018,29 C79.0986239,29 79.9724771,29.1659342 80.766055,29.4955296 C81.559633,29.8273981 82.2408257,30.2706471 82.809633,30.8298227 C83.3761468,31.3889983 83.8188073,32.0345507 84.1330275,32.7664798 C84.4495413,33.4984088 84.6077982,34.2667071 84.6077982,35.0713745 L73.7729358,35.0713745 C73.7729358,36.0374299 73.8990826,36.9330202 74.1513761,37.7604182 C74.4036697,38.5855433 74.7568807,39.2992878 75.206422,39.8971056 C75.6582569,40.4971965 76.1995413,40.9654493 76.8302752,41.3064101 C77.4610092,41.6450977 78.1513761,41.8155781 78.9013761,41.8155781 C79.5321101,41.8155781 80.1330275,41.7132899 80.7110092,41.5132596 C81.2889908,41.3109562 81.8119266,41.0472799 82.2798165,40.7222306 C82.75,40.3971814 83.1490826,40.0198515 83.4770642,39.5970602 C83.8073394,39.1719958 84.0389908,38.735566 84.1743119,38.2877709 L85,38.6514623 C84.7912844,39.3924837 84.456422,40.0880436 83.9908257,40.7358691 C83.5275229,41.3836945 82.9862385,41.9496893 82.3692661,42.4315805 C81.7522936,42.9134717 81.0733945,43.2953478 80.3394495,43.5772087 C79.6055046,43.8590696 78.8646789,44 78.1146789,44 L78.1146789,44 Z" id="Fill-34" fill="#FFFFFF"></path>
                <path d="M90.8877916,43.0066677 C91.3240177,43.0066677 91.7274638,42.9452947 92.0930868,42.827095 C92.4587098,42.7066222 92.7739021,42.5475072 93.036142,42.34975 C93.3009036,42.1542658 93.5051481,41.9269586 93.6539189,41.6655554 C93.8026896,41.4086983 93.8783358,41.145022 93.8783358,40.8745264 C93.8783358,40.4380967 93.757302,40.0562206 93.5127128,39.7288983 C93.2681236,39.4038491 92.9478882,39.1083497 92.5469636,38.8446734 C92.1435175,38.5809971 91.6871191,38.3423246 91.1702038,38.1263828 C90.6532885,37.912714 90.1338516,37.6922261 89.6018071,37.4649189 C89.0722841,37.2353387 88.5478042,36.9898469 88.0308888,36.7261706 C87.5190166,36.4624943 87.0600967,36.1601758 86.6566506,35.8146689 C86.255726,35.4714351 85.9329691,35.0736475 85.6909014,34.6235793 C85.4488338,34.1712381 85.3278,33.6370662 85.3278,33.0210638 C85.3278,32.4391574 85.4614415,31.9027125 85.7362891,31.411729 C86.0086153,30.9207456 86.3843244,30.4956812 86.8659382,30.1388089 C87.3450305,29.7819367 87.9224627,29.5023488 88.5906703,29.3000455 C89.2588779,29.1000152 89.9926455,29 90.7844085,29 C91.3088884,29 91.8031099,29.031823 92.272116,29.1000152 C92.736079,29.1659342 93.1899559,29.2954993 93.631225,29.4887104 C94.0724942,29.6796484 94.5137634,29.950144 94.9550326,30.300197 C95.3963017,30.647977 95.8552217,31.1025913 96.3317924,31.6663131 L95.1693633,32.6050917 C94.5667157,31.7117745 93.8884219,31.0457645 93.1395251,30.6070617 C92.3931498,30.1706319 91.5913007,29.950144 90.7390208,29.950144 C90.2927086,29.950144 89.8816978,30.0024246 89.5034671,30.1047128 C89.1277579,30.2070011 88.8050011,30.3456584 88.5402395,30.520685 C88.270435,30.6934384 88.0636688,30.8980149 87.9148981,31.1298682 C87.7661273,31.3639945 87.6904812,31.6094863 87.6904812,31.8663434 C87.6904812,32.2959539 87.8241227,32.6710108 88.0914058,32.9937869 C88.3586888,33.31429 88.7117041,33.6052432 89.1479302,33.8643734 C89.5841563,34.1235036 90.0808993,34.3621761 90.6331162,34.582664 C91.1903761,34.8008789 91.7602437,35.0236399 92.3452406,35.2509471 C92.9302374,35.4805274 93.5001051,35.723746 94.0548435,35.9828762 C94.6121034,36.2420064 95.1063249,36.5443249 95.542551,36.8875587 C95.9787771,37.2330656 96.3317924,37.6285801 96.5965539,38.0809214 C96.8663585,38.5332626 97,39.0560691 97,39.65616 C97,40.2630702 96.8714016,40.8336112 96.6217693,41.3655099 C96.3670939,41.8974087 95.9888632,42.3565692 95.4845556,42.7452644 C94.9777264,43.1339597 94.3397773,43.4408244 93.5707081,43.6635854 C92.8041605,43.8863464 91.9090145,44 90.8877916,44 C90.421307,44 89.9447363,43.9659039 89.4530364,43.8977118 C88.963858,43.8295196 88.4671149,43.7022276 87.9653289,43.5090165 C87.4660643,43.3180785 86.9642782,43.047583 86.4650137,42.699803 C85.9632276,42.34975 85.4740492,41.8951356 85,41.3314139 L86.2935491,40.2721624 C86.6793444,40.7631459 87.0500105,41.1813911 87.4080689,41.526898 C87.7661273,41.8701318 88.1241858,42.1519927 88.4872872,42.3702076 C88.8478672,42.5906956 89.2260979,42.7498106 89.6169363,42.8520988 C90.0077747,42.9566601 90.4313931,43.0066677 90.8877916,43.0066677" id="Fill-36" fill="#FFFFFF"></path>
                <path d="M107,39.9226315 C106.623515,40.5630067 106.122277,41.0691452 105.500743,41.441047 C104.879208,41.8129488 104.112871,42 103.201733,42 C102.729455,42 102.319554,41.9207783 101.974257,41.7667362 C101.626733,41.6104934 101.341584,41.3882326 101.114356,41.1043549 C100.884901,40.8182766 100.717822,40.4771832 100.608663,40.0788742 C100.497277,39.6805652 100.443812,39.2382442 100.443812,38.7541117 L100.443812,28.9306231 L98,28.9306231 L98,28.2440352 C98.7886139,28.2440352 99.4368812,28.1031967 99.944802,27.8215196 C100.452723,27.5398425 100.867079,27.1591383 101.192327,26.679407 C101.515347,26.1996757 101.769307,25.6429233 101.954208,25.0113505 C102.139109,24.3797776 102.299505,23.7107945 102.439851,23 L103.241832,23 L103.241832,27.7621033 L106.407426,27.7621033 L106.407426,28.9306231 L103.241832,28.9306231 L103.241832,38.7541117 C103.241832,38.9631689 103.281931,39.1568219 103.359901,39.3394719 C103.437871,39.5199212 103.54703,39.6783646 103.682921,39.8126013 C103.818812,39.9468381 103.979208,40.052467 104.168564,40.1294881 C104.357921,40.2087098 104.556188,40.2483206 104.765594,40.2483206 C105.081931,40.2483206 105.369307,40.1712995 105.625495,40.019458 C105.883911,39.869817 106.111139,39.6805652 106.302723,39.4561038 L107,39.9226315 Z" id="Fill-38" fill="#FFFFFF"></path>
            </g>
        </g>
    </g>
</svg>